<svg viewBox="0 0 93 96" fill="none" xmlns="http://www.w3.org/2000/svg" width="100" height="100">
    <path d="m16.4773 45.8966.1886-.0698.0595-.1997-.2481.2695ZM16.8265 45.4998l-.0388-.3411.3102.0195.2229-.0585-.7463-.9065-.2229.1072.4749 1.1794ZM77.0584 61.9532c0 .1958-.4479 0-.555.1468l.5161.1665h-.0974c.0682-.0783.2921-.4308.1363-.3133ZM41.5811 13.1007l-.0388-.3217.2908.0098.2133-.0488-.7076-.848-.2035.0975.4458 1.1112ZM43.1128 13.9772l-.2035-.0682c.0936.3244.0625.6724-.0873.9747l.6494-.2436-.3877-.9943v.195l.0291.1364ZM22.1569 47.3806l-.2035-.1852.2714.6531.126-.195c.0775 0 .1938 0 .2035-.1267.006.7615-.0589 1.5218-.1938 2.2711l.1163.2047c.1163-.2729.3004-.5653.5524-.5556l-.1453-.1657c0-.1949 0-.4971.126-.5263l.252.0779c-.0679-.1267-.1551-.2631-.223-.4093v.1267c0-.0975-.0678-.234-.1163-.3704a.83276.83276 0 0 1 .0582-.5654v-.0487a.607.607 0 0 1-.3296 0c0-.2144.1357-.2632.2714-.2242a1.3325 1.3325 0 0 1 0-.5166l-.6882.1462h.2036c.2908.4191-.1454.3119-.2811.4094Zm0 .3412c0-.1463-.126-.0585-.0775-.312.1066-.0584.1841.195.1066.3509l-.0291-.0389Zm.63.7018c0 .1072.0873 0 .0679.1852-.0776-.078 0 .1949-.1066.1169-.1067-.078.0387-.2534.0678-.3021h-.0291ZM71.2441 60.6279h-.0717V60.7l.0717-.0721ZM9.99316 42.0792h.02124l-.0106-.0107-.01064.0107ZM21.8953 78.465h.126c.0537-.207.083-.4197.0872-.6336l-.2132.6336ZM58.9505 62.0113a.67449.67449 0 0 0-.3102 0 .5424.5424 0 0 0-.2908.1657.82232.82232 0 0 0-.1163.1852c-1.0933 1.9735-2.6017 3.6833-4.4198 5.0101-1.3757 1.1544-2.8859 2.1363-4.4973 2.9241a1.1789 1.1789 0 0 0-.223.2632.51913.51913 0 0 0-.0969.3411c0 .1365.0872.2632.2229.2827.1357.0195.097 0 .1551 0 1.2504-.2437 3.0047-1.54 5.1274-3.2166a18.83557 18.83557 0 0 0 1.9773-1.6862c0-.0682.0581-.1072.1163-.1072 1.1743-1.0686 2.0752-2.406 2.6267-3.8989l-.0679-.2047-.2035-.0585ZM39.3421 29.0855c-.0872.0487-.4458.1657-.5427.2047a1.4777 1.4777 0 0 1-.475.1169c-.0969 0-.2326 0-.2326.078s.4362.3022.5815.2632c.5719.2534 1.2698-.6336 1.357-.8188a.2058.2058 0 0 0 0-.1169h-.1842a3.8602 3.8602 0 0 0-.504.2729ZM38.6825 28.8319a.28121.28121 0 0 0 .0949-.0665.2823.2823 0 0 0 .0602-.0992c0-.0683.5428-.5069.2132-.5459-.3295-.0389-.4846.2145-.7269.3217-.0679 0-.4362-.0487-.4265.0877.0097.1365.2036.1852.3199.234.0672.0463.144.0766.2247.0884a.52989.52989 0 0 0 .2405-.0202ZM38.7899 26.5417c.354-.0038.7036-.08 1.0274-.2242a.35195.35195 0 0 0 .0888-.2339.35195.35195 0 0 0-.0888-.2339c-.0776-.078-.1357-.0683-.252-.078h-.2714l-.2811.0585a.64739.64739 0 0 0-.2326.0877c-.0969.0585-.1648.0877-.2036.2047a.35334.35334 0 0 0 0 .2437c.0291.1267.1164.1462.2133.1754ZM66.1709 30.294l.3683.1365c.1231-.2004.2038-.4241.2371-.6572a1.7237 1.7237 0 0 0-.0432-.6977 2.56793 2.56793 0 0 0-.252-.7408c-.1163 0-.2423-.0487-.2133-.3509-.1351-.2037-.326-.3636-.5496-.4605a1.254 1.254 0 0 0-.7104-.0853 1.04495 1.04495 0 0 0-.3849.1756 1.0522 1.0522 0 0 0-.2845.3144c-.0726.1232-.1194.26-.1377.402a1.059 1.059 0 0 0 .0317.4239c.1842 1.0137 1.3182 1.3061 1.9385 1.54ZM65.3858 35.2166c.1596-.0137.3138-.0651.4499-.15.1362-.085.2504-.201.3336-.3387.0831-.1378.1327-.2933.1448-.454a1.02955 1.02955 0 0 0-.0754-.4706 1.83748 1.83748 0 0 0-.3997-.8207c-.2-.2352-.456-.4156-.744-.5244l-.6494-.312c-.3456.4316-.5184.9773-.4846 1.5303.1841.9943.8044 1.6668 1.4248 1.5401ZM29.5619 43.1019c.1588-.0157.3117-.0683.4467-.1538.1351-.0854.2484-.2013.3312-.3384.0828-.1371.1326-.2918.1457-.4517a1.03935 1.03935 0 0 0-.0706-.4694v-.1365c-.0797-.2736-.222-.5246-.4156-.7328a1.81212 1.81212 0 0 0-.6991-.4661l-.6494-.3217c-.3454.4354-.518.9841-.4846 1.5401.1454.9845.7754 1.6473 1.3957 1.5303ZM30.3767 38.1795l.3683.1364c.1215-.2009.2021-.4242.2371-.6568a1.78448 1.78448 0 0 0-.0336-.698c-.1841-.9748-.7754-1.6571-1.512-1.6571l-.7076.2437c-.1548.1304-.2704.3017-.3338.4945a1.09848 1.09848 0 0 0-.0248.5972c.2229 1.0137 1.357 1.3061 2.0064 1.5401Z" fill="#fff"/>
    <path d="M93 63.0253 74.0705 42.0201l2.5879-8.0999a.54257.54257 0 0 1-.3273-.2146.5481.5481 0 0 1-.0992-.38h.2035c-.0872.3217.1454.195.2714.2242a.84945.84945 0 0 0 0 .1657l.3296-1.0332a.10634.10634 0 0 0-.0439.0302.10777.10777 0 0 0-.024.0478c0-.1852 0-.234.126-.2534l.2327-.7311c-.0873 0-.1745.2047-.3587.1657a.33234.33234 0 0 1 .0061-.1742.33187.33187 0 0 1 .093-.147.32822.32822 0 0 1 .3274-.0687l5.2921-16.5702-7.9382 1.7253-8.7233 1.9007-.756.1559-10.1384 2.2419L36.2017 0l-4.4683 14.0067-4.1581 12.9832-16.9329 3.6747-1.93849.4192-2.83992.614H5.7283l-2.55884.5849L0 32.9747l12.0285 13.3244c.2617-.2437-.1164-.5653.2035-.7603 0 0 .2714-.0779.3005 0 .029.078-.3005-.4678-.2617-.4873 0 .1267.2617.1267.378 0l1.2891.4581h.504a.5878.5878 0 0 1 .0552-.4032c.0658-.1234.1735-.219.3034-.2694l.0485.195a2.12837 2.12837 0 0 0 0-.6531c.4071-.653 1.4539-1.3646 1.6962-.1462.3974 0 .6203.4776.7463.9065l.1648.2047c0 .1365-.0873.1559-.1066.2632l-.1551.0584c.1406.101.2621.2264.3586.3704v-.2924c0-.0682.0872-.1462.1066 0 .0582 0 .1163 0 .1066-.1267l.1745.0682.126-.1949c.2714 0 .0679.5263.3974.4191l-.0678.195c.1468.0586.2996.1011.4555.1267.0636.1129.097.2406.0969.3704 0 .2729.2714.1559.2714.4289-.2908.1169-.3101-.1073-.3586.3216-.2326.078-.252-.1852-.2714-.4289h.126l-.3489-.8187.0484.2047v.1364l-.1841-.078c.061.1766.0847.364.0697.5503-.015.1862-.0685.3673-.1569.5317a.81073.81073 0 0 1-.3781 0c-.1938.117-.378 0-.5718 0h-.378l.1454.0682c0 .3412 0 .6531-.223.6628.0776-.3509-.2035-.2632-.2907-.4094l.0581-.2436-.1454-.1657h.223v-.2827a.3853.3853 0 0 1 .1666.0389c.052.0253.0977.062.1338.1073l-.0581.1949a.56994.56994 0 0 1 .378 0h.9498l.0873-1.0819-.1163.195a.3584.3584 0 0 0-.1793.1557.3626.3626 0 0 0-.0437.2341l-.1938-.0487-.126.1949c-.2326-.1852-.1648-.731-.2617-1.0819h.2229l-.3586-.3704v.2047c-.378 0-.3005.1365-.6106 0 .155.2729 0 .1755 0 .5361l-.1454-.0682-.0582.1949h-.3101c0-.5653-.1648-.6823.2326-.7993l.1163.2145c.0656-.1007.1475-.1896.2423-.2632l-.1454-.078v-.1364l.252.0779c-.3084-.3112-.4855-.7302-.4943-1.1696l-1.5023.6823.1453-.0585a.20377.20377 0 0 1 .1147.0717.20617.20617 0 0 1 .0447.1281c0 .0466-.0158.0918-.0447.1281a.20377.20377 0 0 1-.1147.0717c0 .3119.4362.0975.5041 0-.1028.3995-.0826.821.0581 1.2087.0969 0 .1066.117.1939.1462v.1267h.1066c0 .1657-.1454.1755-.126.3899l-.1454.0682-.0582.195c-.3489-.2729-.7366-.8188-.9692-.8383.252-.078 0-.6238-.0776-.6725a1.31163 1.31163 0 0 0-.7172.1949l.8723 1.1989-.9111-1.2476v.3996c0 .0975.2229.4679 0 .5556s-.1357.1365-.1745.1657h-.3101c-.0485 0 .6882 1.0235.6688 1.0819l5.0886 5.6534-5.9222 18.6464-2.6751 8.3825 11.001-2.427.5234-.1072c.0932-.2953.2032-.585.3296-.8675v-.0585a2.86113 2.86113 0 0 1-.349.692 2.6284 2.6284 0 0 1 0-.9065c.126 0 .2811.1365.3393 0a.24447.24447 0 0 1-.0298-.1169c0-.0409.0103-.0811.0298-.117l.3974-.0975c0 .117-.1454.2437-.1745.3704-.0291.1267.0678 0 .1357 0v.2047l.2035-.6335c-.0502.2153-.115.427-.1938.6335h.0872c-.0388.182-.0872.3769-.1454.5849.1174.01.2274.0618.3102.1462l15.1107-3.2751L56.808 96l6.6297-20.742.1551-.4776.2617-.809 1.6671-4.9808 14.3644-3.1191v-1.082c.1648.117.2035-.2144.2908 0v.234l.0678.1559c0 .3314-.0678.3607-.0678.6141L93 63.0253ZM75.5534 30.4892c.1745 0 .3489-.6336.4846-.2339-.1744-.039-.3392.692-.5234.2339h.0388Zm.504 2.8267c-.0969-.0585-.3683.1169-.3489-.117.1357 0 .2617-.5458.3683-.2047-.1648.039-.0387.1462-.0581.3217h.0387Zm0-.8383c0-.2729.097-.3899.3005-.3606-.0097.2729-.1163.3996-.3199.3606h.0194Zm.4847-9.4353.3295-.2047c-.126.0878-.2035.2632-.3489.2047h.0194Zm.9692-2.0371c.1357.078.4943-.1267.475.1462-.1842-.078-.5138.1267-.4847-.1462h.0097Zm.8433.2826c.155-.614.4555-.1754 0 0Zm-1.9386-1.9494v-.1364l.1357.0682-.2616-.4484a.87817.87817 0 0 1 .2616.4484l.0582-.1852c.7754.8967 1.9385.4678 2.9078.7408l-.0582.1949.1357.0682c-.7076.4972-1.3666 0-2.0063.4192.0969.0585.3101.4971 0 .3801-.3684.1657 0-.5653-.3587-.3899-.0969 0-.1163.0877-.1938.1072v-.1852a.61349.61349 0 0 1-.1163.1073.49218.49218 0 0 0-.2327 0l.349-.0683-.1357-.0682c0-.2729-.0582-.3996-.2714-.3899l.0678-.3899c-.252.1657-.4749 0-.6591-.2436l.6591.2436-.2811-.2729Zm-.2035 10.0591c-.1841 0-.252.2534-.4846.2339.0581-.4776.4458-.3899.4943-.2436l-.0097.0097Zm-.2908-4.6689c-.1744 0-.2132.1365-.3877.1072 0-.3704.3974-.4678.3974-.1169l-.0097.0097Zm-.7075-3.8014c.6203-.1267.1938.3899 0 0Zm.2907-2.505c-.2229.1754-.882.4094-.9692.0877.2229-.1267.8626-.3022.9789-.0975l-.0097.0098Zm-.6881 7.8952c-.1648 0-.2423-.1072-.2811-.2632.1745-.0097.252.0975.2908.2632h-.0097Zm-.3199 8.1681c0 .2145-.0872.3119-.2035.3607.0097-.2242.0872-.3217.2132-.3704l-.0097.0097ZM2.98531 33.774c.09692.0585.14538-.1657.15508.0682-.04847.0195-.1357.1365-.14539-.078l-.00969.0098Zm.22292-.1267h.06785s-.01938.039-.05815-.0098l-.0097.0098Zm.15509 0c0 .0974.07753.1657.11631.2534.03877.0877-.09693-.1365-.10662-.2924l-.00969.039Zm2.90776 1.9494c.07754 0 .05815-.1754.1357-.1267a.97944.97944 0 0 0 0 .1949c.00969.0488-.07755-.0389-.10662-.1267l-.02908.0585Zm0-1.3646H6.368a1.07791 1.07791 0 0 0 .06785.6726.43683.43683 0 0 1-.17143-.1335.43983.43983 0 0 1-.08637-.1999.44107.44107 0 0 1 .02002-.2171.43936.43936 0 0 1 .12147-.1806l-.04846.0585Zm1.35695 3.587c0-.1657.00001-.3314.09693-.3217.09693.0098-.00969.3314-.09693.3217Zm.11632-.7116c0-.1754 0-.3899.06785-.3996a.70517.70517 0 0 1-.06785.3996Zm.46524-2.5147c.14539 0 .08723-.312.29078-.234.07754.2632-.2714.5556-.29078.234Zm4.65241 3.0606c-.0678.0974-.126.1559-.1745 0 .0873.0487.1745-.1852.1745 0Zm-.3489-4.7664c0-.2047-.2326-.117-.1745-.3899.2326-.0975.378.4289.2036.3899h-.0291Zm-.378.1072c.1551.4191-.3587.5166-.3877.2339.2811.1073.2229-.2436.4167-.2339h-.029Zm0 1.5498c-.1163.5069.2229.4776.2617.809l-.1551.0585a.37272.37272 0 0 1 0 .2729v-.2729l-.0582.2047c-.126.1462-.3586.1365-.6106.1072l.0582-.1949-.475.6433a6.4772 6.4772 0 0 1 .475-.6433l-.1454.0585c.1841-.4289.3198-.887.6784-1.043h-.029Zm.1841 2.7195c0 .1852-.1163.3509-.1551.1852-.0387-.1657.1357-.1267.1842-.1852h-.0291Zm-1.0952-2.9242h.2035c.0776.2827-.2811.5849-.3101.2535.126.0389.1163-.117.1356-.2242l-.029-.0293Zm-.5913 2.2516c0 .3704-.1744.2632 0 .5361l-.1551.1462v.2535a.46407.46407 0 0 1-.2175-.0295.4653.4653 0 0 1-.1798-.1265c0-.3217.1938-.2827.126-.6628.077.0258.1593.0312.2391.0159a.47448.47448 0 0 0 .2164-.1036l-.0291-.0293Zm-.4361-4.4252.1841.2242c-.1357.0487-.252 0-.3198-.195l.1357-.0292Zm-.31989 1.1502c.26169.4386-.36832.3704 0 0Zm-.73664 5.9652c.51371-.1072 0-.8869.25201-1.1989a.38737.38737 0 0 1 .30047.1463l.14539.0682v-.5361a2.09759 2.09759 0 0 1 0 .5361l.15508-.0585c-.29078.5653 0 1.1697-.35863 1.4621l-.15508.0585.33924.9747c.10629.2417.13998.5093.09693.77l-.09693-.77c-.23301-.2693-.35443-.6181-.33924-.9747l-.15508.0584c.00969-.3021-.27139-.2144-.18416-.575v.0389Zm.32955 2.2322a1.01454 1.01454 0 0 1-.45555-.156l.43616.1462.01939.0098Zm-.39739-8.2852a2.16029 2.16029 0 0 1-.17447-.5166l.17447.5166Zm.96927 8.9382-.08725-.117v.0585a.97162.97162 0 0 1 .35865.2827c-.1551.0585-.2133.2632-.4265.2047 0-.1657 0-.3996-.05816-.4386-.05815-.039-.05815.1267-.14538.0974a.35257.35257 0 0 1 0-.0877.19355.19355 0 0 1-.07754.0163.19348.19348 0 0 1-.07754-.0163v-.0877h-.09693c-.17447-.195.19385-.2437.07754-.3412a.33773.33773 0 0 1-.15508.0378.33776.33776 0 0 1-.15508-.0378v.1755h-.31016a.22489.22489 0 0 1 .05493-.091.22262.22262 0 0 1 .09045-.0552.28442.28442 0 0 1 0-.1365c.12601 0 .58156-.1364.56217.1267.05816 0 .12601.1365.19386.1267.06784-.0097 0 0 0 0l-.28109-.3119c.11631-.0974.25201-.1559.36832-.2436l.04846.2046.05815-.1949h.20358l-.0582.2437.4943-1.4231-.79476.5946a.88643.88643 0 0 1 .30656-.4201.87903.87903 0 0 1 .4882-.1745c.1357-.1365.223-.2729.378-.3314l-.378.3314c.0551.266.0811.5373.0776.809-.1066.3022-.3005.6043-.5719.6141l.1454.1559c-.0872.1267-.1648.273-.252.3997l.0194.0292Zm1.3376 1.4816-.9693-1.1112c.2229-.078.3586.1852.4459.3996l-.4362-.3801.8529.9747c0-.1462.0776-.2534.1454 0a.33928.33928 0 0 1-.0291.078l-.0096.039Zm0-.7798v.1267c0 .0683-.1454-.078-.2036-.1364a.74596.74596 0 0 1 0-.2632h-.0872a.23376.23376 0 0 1-.0582.0877.99282.99282 0 0 0 0-.117v-.0974s-.1357.0974-.1454-.1267c-.0097-.2242.126 0 .1551 0 0-.1657-.1066-.0585-.0678-.2632 0 .0585-.1842.1364-.1939 0-.0097-.1365.126 0 .1648-.1267s-.0582 0-.0679-.1267c-.0097-.1268.0873.1072.097.2631.0678 0 .0775.0878.1163.1365a.24219.24219 0 0 1 .1551-.0975c0 .2535.3295.1072.281.4094-.1453 0-.1938.0682-.281.117.1163.1267.281.0585.155.1754l-.0193.039Zm.0969-1.1794a.2616.2616 0 0 0 .111-.0699.26308.26308 0 0 0 .0634-.1153c0 .0682 0 .0682.0776.0585 0 .2339-.1163.0877-.0969.3314-.0679.0195-.0873-.156-.1357-.2437l-.0194.039Zm.2326.3996c0-.2339.0872 0 .0872-.1852v-.0682c0-.0682.0776 0 .0776.0682 0 .0683.126-.1364.1066.1365-.0872.0487-.1454-.0487-.252.0097l-.0194.039Zm.1842-3.0996v.4094h-.097c.0238.0927.0238.19 0 .2827-.0872 0-.1163-.0585-.0969-.2534h.0679c-.3974 0-.4556-.5849-.9693-.078.2283-.4509.3193-.9595.2617-1.4621.378 0 .3295-.6433.63-.7798l.1163.2145.1842-.0683c.159.5176.159 1.0713 0 1.5888.1357 0 .126-.3119.3489-.2047a.5159.5159 0 0 1-.1705.2428c-.0793.0624-.175.1-.2753.1081Zm.5427 3.7722c-.1841.731-.6591 0 0 0Zm.2714-4.5617v-.2534c0-.117-.0872.0975-.1066.1852s0 0 0 .0682v.117c0 .1169-.0969-.1852-.126 0s0 .1657 0 .3119c-.1357-.0682 0-.2047-.1745-.0682 0-.234.1357 0 .1067-.3022a.19636.19636 0 0 0 0-.1267c-.0582-.078-.1163.1754-.126 0 .0678-.3412.3683 0 .3392-.3022.1842.078.0969.4874.2714.078.0194.3996-.0291.1754-.1745.2437l-.0097.0487Zm.6591-4.6689a.38905.38905 0 0 0-.1551-.2047c.0334-.2963.1017-.5875.2036-.8675l-.0485 1.0722Zm.4653 11.2483h-.1939v-.2632h.2036l-.0097.2632Zm.7851-1.8423c.126 0 .0678-.1462 0-.2729.1163 0 .252-.1462.1066 0 .2423.1365-.0291.5946-.0679.2729h-.0387Zm-.0194-11.3554c0-.078.3198-.4094.2811-.117-.0388.2924-.3102.3217-.2811.117Zm.7463 9.7472c-.0581 0-.1163.2046-.126 0 .0775 0 .0775-.1755.1357-.2437l-.0097.2437Zm1.5799-2.0567c.4265-.4581.2229.4386 0 0Zm.5137-.3801c.2132-.078.4555-.4484.504 0-.2326-.156-.4265.3996-.504.0097v-.0097Zm.3877-1.9495c.4555.2535-.1163.6141 0 0Zm.2229-.5361c0-.2631-.2714-.1754-.1841-.5361.2617-.1559.4264.4387.1841.5069v.0292Zm-2.2777 12.2522.0581-.3314c.0873-.2534 0-.2144-.1938-.5361l.1551-.0584v-.2047a.36972.36972 0 0 0 .1713-.1592.37218.37218 0 0 0 .0419-.2307h.1066v-.1267c.1357 0 .0872.2339.1939.2729l-.0582.2437.1454.1559c-.0655.156-.0943.3252-.0842.4942.0101.1691.0588.3335.1424.4805h-.6785Zm1.0468.9163h-.0776l-.5137-.5751c.378-.1462.9693-.7408 1.1631-.1852.097-.2924.2714-1.3354.6397-.7505a.38557.38557 0 0 0-.2076.0631.38864.38864 0 0 0-.1415.1654.39235.39235 0 0 0-.0309.2159.39053.39053 0 0 0 .0893.1989c-.1454.4971-.8821.0974-.8821.8675h-.0387Zm1.0274.2729c0 .0877-.0679.1365-.1551.1072.1357-.6043.3974.2339.504.3704-.2908.1365-.1841-.3314-.3101-.4776h-.0388ZM80.8456 62.109c-.2714-.1072.0969-.2046.1356-.3508.2521.1267-.0581.2436-.0775.3508h-.0581Zm0-.6433a.82309.82309 0 0 1 .2229-.1169l-.2229.1169Zm0-1.2184c0-.1852.3004-.2144.252 0h-.252Zm0-1.1014c-.0582-.2144.2035-.0975.252-.2144.0484-.117.1066.3509-.1357.2144h-.1163Zm.8335 2.1249c-.0678 0 0-.117-.1163-.1267-.1163-.0098.378.0682.2326.1267h-.1163Zm.2326 1.8617c.1163-.2339.3586-.1365.4846 0 .0097.2242-.155-.0682-.3683 0h-.1163Zm.3199-1.9007c-.1939.2047-.2036-.1852 0 0Zm0 .7505c.1066-.0974.1744.078.3004 0 .126-.0779-.1453.0878 0 .2242-.0387-.1754-.2326.0683-.2132-.2242h-.0872Zm.4168 1.3744c-.0873 0 0 0 0-.0585.1357-.2437.0484.0585 0 .0585Zm0-1.735c.1938-.2047.1938.1852 0 0Zm5.3212-.4679c-.1551.4874.2714.1657.1841.5556h-.4846c.0775-.2534.1066-.5458.2908-.5848l.0097.0292Zm-2.3166-3.2263c.2133.3899.223 0 .4265-.0975-.1066.5849.3393.273.4071.1267-.0969.2632.1939.4582 0 .5459 0-.3217-.1163.1559-.2132.0975 0-.5459-.9111-.5556-.4847-.1267h-.281c-.0291-.312-.0194-.5654.1357-.5751l.0096.0292Zm-.9014-.1462c-.1453 0 .0001.4776-.2229.4191-.2229-.0585-.2617-.4386-.3198-.77.2423-.0097.4652.078.5331.3217l.0096.0292Zm-.5815-1.1112c.0775.3509-.4265.2632-.4265.0975.1551-.0195.2036-.2339.4168-.1267l.0097.0292Zm-.0776 1.735v-.2144c-.126.0877-.1841.2924-.4167.1949-.0582-.7992.6881-.3021.4071-.0097l.0096.0292Zm-1.2406-1.9494c.3683.1267-.2423.2729-.0775.3411 0 .0878-.0776 0-.1842 0a.58193.58193 0 0 0 .1698-.1774.58596.58596 0 0 0 .0822-.2319l.0097.0682Zm-.1357 3.4505c.0872.4581-.3877 0-.3005.4191-.1163 0-.252-.0585-.2617-.2632a.96598.96598 0 0 0 .5525-.2241l.0097.0682Zm-.5719-1.8812-.126.2242c.0295-.101.0685-.1989.1164-.2925l.0096.0683Zm0 1.5303h-.2132c0 .2827 0 .3899-.2229.3216-.0291-.4191.3392-.6823.4555-.4191l-.0194.0975Zm-.4652-.4776h.1163c0 .0487 0 .0585.0679.0585.0678 0-.1163.0877-.1357.1754-.0194.0877-.0485-.2144-.0485-.3022v.0683Zm-.1357.3411c.0969 0 .1066.0585.1842.0585.0775 0-.2617-.0195-.1648-.1267l-.0194.0682Zm.1939.5556a1.29496 1.29496 0 0 1-.2811 0s0-.0682-.0776-.0877l.3587.0877Zm-.4362-2.0761c.0485.2242-.1357.5945-.1551.3216.0582 0 .0873-.0877.0776-.2144a.66504.66504 0 0 1-.2998-.0579.668.668 0 0 1-.243-.1858c.1744-.2534.378.0975.6397.0682l-.0194.0683Zm-.5622.9747h-.1066a1.66876 1.66876 0 0 1 0-.2145l.1066.2145Zm-.2907-7.944c.1163-.0779 0 .0975-.0679.2145l-.0969-.117c.1066-.1072.1744-.1267.1841-.2047l-.0193.1072Zm-.3393 7.5541c.1842 0 .4071-.0487.4071.2339-.0872 0-.1454.1365-.1551.3119-.1841 0-.4071.0488-.4071-.2241.1939-.0293.2423-.2047.1551-.3217Zm-1.2503 1.5693c-.0582.4289.2714.2924.3295.5556-.2423-.1755-.0581.3704-.2229.3216.1648-.5653-.3974-.5653-.1066-.9259v.0487Zm-.9111-3.626c.0935.0077.1875.0077.2811 0l-.349.156a.18726.18726 0 0 1 .0012-.1133.18525.18525 0 0 1 .0667-.0914v.0487Zm.252 2.1444c-.1536.0542-.313.0902-.475.1072l.475-.1072Zm-.3393.8773v.2924a.31346.31346 0 0 1-.0504-.1706.3137.3137 0 0 1 .0504-.1706v.0488Zm-.1453-.2632c.0934-.0098.1876-.0098.281 0h-.281Zm.4652 1.3256h-.2714c.0873-.036.1783-.0622.2714-.078v.078Zm-.5428-4.9516c-.2035-.0877-.252.0975-.4168.0878.0388-.4971.2908-.3509.4168-.0878Zm0 2.5148c0 .1462-.2326 0-.1745-.1267.0776-.0097.0873.0682.1745.0877v.039Zm-.3198-1.4426c-.2036.078.0775.273 0 .5361-.126-.0585-.2908-.0682-.3393-.2339.1842.078.1648-.7895.3393-.3412v.039Zm.0581 1.891c-.1357.1754-.3877-.078 0 0Zm-.3005-1.7448-.1744-.0682s.3295-.1072.1744.0292v.039Zm-.0581 1.5596-.1842.1462c.0679-.0975.097-.1949.1842-.1852v.039Zm-.1842 2.3783a.29013.29013 0 0 1 0 .0975c.1067 0 .2133-.1657.3296-.0683l-.3296.0683h-.0872l-.1648.078c0-.078.0873-.078.1648-.078l.1163-.0585-.2714-.117c-.0775 0-.1551 0-.1551-.078l.1551.078c.1163.0488.2423.0293.2423.078Zm.252.3412-.126.1072a.19571.19571 0 0 1 .0679-.0762.19346.19346 0 0 1 .0969-.031h-.0388Zm-.7657 0c-.0969-.1073-.2423.0682-.2423-.1852.1551.0292.3102.0292.2811.1852h-.0388Zm-.1647-6.7646c-.223.1365-.4362.3412-.5719 0 .2811.156.5331-.3509.6106 0h-.0387Zm-.1551 7.2227a1.14951 1.14951 0 0 1-.5137-.1755l.5137.1755Zm-.3296-1.9495.2423.1267a.18288.18288 0 0 1-.1163-.0096.18435.18435 0 0 1-.0872-.0781l-.0388-.039Zm.3683.6823c-.1841.2145-.1938-.1852 0 0Zm-.5427-.0779a.15551.15551 0 0 1-.0922-.065.15665.15665 0 0 1-.0241-.1105h.1841a.2651.2651 0 0 0-.0375.1041.26516.26516 0 0 0 .0084.1103l-.0387-.0389Zm-.1842-4.8736h.2035c-.0969.4093.0001.4971-.1647.6433a.86156.86156 0 0 1 .0872-.4289c-.0485.0487-.126-.0097-.0872-.1949l-.0388-.0195Zm.0969.8382c-.0969.0878-.2326 0-.3586-.078-.126-.0779.4362-.0877.3974.0975l-.0388-.0195Zm-.5427.8578a4.8058 4.8058 0 0 1-.6494-.8188l.6494.8188Zm-1.5218-36.2303a.49632.49632 0 0 1-.2362.2559.49166.49166 0 0 1-.3453.0365l.5815-.2924Zm-.7366 35.1386c0 .0877.2326 0 .2423.1267.0097.1267-.2132 0-.1938.1657-.0485-.0487-.0873-.2047-.0098-.2729l-.0387-.0195Zm-.1939-3.4213c.1454-.1072.126-.4776.3683-.4191.1067.3996-.252.6628-.3295.4386l-.0388-.0195Zm.4944 0c.0581.2145.3004.1852.252.5556-.1164.0098-.4362-.3021-.2036-.5166l-.0484-.039Zm-.1648-6.6183c.1454.078.4652-.117.4846.1267-.1163.0975-.4265.2827-.4459-.0877l-.0387-.039Zm-.097-18.4222c-.0581-.2826.1454-.8285.2133-.4873-.1454.0389.1842.5263-.1745.5263l-.0388-.039Zm.1454 10.9559v.2534h-.1938v-.2534h.1938Zm.097-16.5215a.67449.67449 0 0 1-.3102 0h.3102Zm-.4459 5.936c.1939-.4094.4459.3996 0 .2534v-.2534Zm.3489 22.1749c-.0581.3216-.1744.5458-.4361.5166.0678-.3217.2035-.5166.4749-.4777l-.0388-.0389Zm-1.0468-2.0762c.1842.0487.2036-.156.3005-.2339.1066.3021-.2326.5848-.2617.2729l-.0388-.039Zm-.0678-19.7478c0 .4386.2035-.5263.2811 0-.0485.2534-.5428.3802-.2423.039l-.0388-.039Zm-.3005 25.7716c0 .3411.1842.1462.349.1267v.3216c-.1648.0683-.4847-.2534-.3102-.4094l-.0388-.0389Zm.1842 2.1443c0 .1073-.2036 0-.1939.1657-.0775.0293.0679-.2046.2327-.1267l-.0388-.039Zm-1.0662-11.4919v.2534c.126 0 .3489-.0974.2714.234-.1745-.078-.3586-.1072-.3296-.4484.097-.1754.1842-.3704.3587-.4191.0872.3996-.2133.1949-.2617.4191l-.0388-.039Zm0 13.0125c-.0582.0877-.2035.078-.3102.1072.0097-.1949.2617-.0487.3781-.0682l-.0679-.039Zm.126-20.2936c-.2423-.1462-.3586.5263-.4846.1072.1841 0 .4458-.4581.5525-.0682l-.0679-.039ZM70.271 23.247c0-.1169-.0679-.0779 0-.2436.0678-.1658.0678-.0878.1066-.117a2.39133 2.39133 0 0 1-.0388.3996l-.0678-.039Zm0-.9747v.4971c-.126.1072-.0873.1072-.1551 0a.79293.79293 0 0 0 0 .4289c0-.0487.0969-.2047.1066-.0487-.0969.4093-.3295.7992-.5137.7115a.8073.8073 0 0 0 .2447-.2912.8138.8138 0 0 0 .0849-.3716c0-.1462-.0776-.117-.0582-.3119.252.117.1163-.7311.3489-.5848l-.0581-.0293Zm-.475.5946c0 .2339.0582.1267 0 .3119-.0581 0-.0581-.0682-.1066-.0682-.0484 0 .1163-.195.1648-.2145l-.0582-.0292Zm-.0775.4289c.0582-.0683.1551.0779.2132-.1073 0 .4289-.1357.4972-.2423.3607-.1066-.1365.0873-.1072.0873-.2242l-.0582-.0292Zm.4846 3.0508c-.2326-.1462-.4652.3704-.5718 0 .2326.0488.5524-.3216.63.0293l-.0582-.0293Zm-.3198 10.2053c-.0969 0-.0776.1852-.1551.2145a2.77122 2.77122 0 0 0-.1842-.5459c.2327.039.3005.234.3974.3607l-.0581-.0293Zm0 20.8493s-.0582.0584-.0679.1169h-.1163c0-.065-.0194-.1039-.0581-.1169.029-.117.2229.0195.252.0292l-.0097-.0292Zm-.5331-17.8764c-.0679-.4581.4168-.1169.4943-.3606.0775.4873-.4071.1364-.4846.3899l-.0097-.0293Zm.4943-.809c-.1551-.4191-.2035 0-.4846 0-.0485-.5751.8239-.4873.4943.0293l-.0097-.0293ZM69.292 21.785s-.0872-.0975-.1357-.195l.1357.195Zm-.4749 2.3685c.1842.0585.4071.0585.3683.3899-.2326-.2242-.3392.1365-.4749-.1365.0872-.0389.126-.0389.1163-.2241l-.0097-.0293Zm.126 1.6375c-.1454.6239-.4555.1852 0 0Zm-.2423 2.9242h.2811a.58797.58797 0 0 1-.0343.2303.58477.58477 0 0 1-.1208.1986c.1066-.3119-.2132-.0585-.1163-.4094l-.0097-.0195Zm.0969 1.4621c0 .0487-.1454.1364-.1551 0-.0097-.1365.1454-.234.1648.039l-.0097-.039Zm-.4846-4.4447a.40082.40082 0 0 1 0 .1072l-.5525-.2729c.2036-.0095.4036.0564.5622.1852l-.0097-.0195Zm-1.3279-.3899c0 .0974.0679.1852.0775.2339.0097.0487 0 .1365-.0969.2729l.0194-.5068Zm-.8142-2.1639c.032.128.032.2619 0 .3899l-.2229-.4484a.87787.87787 0 0 1 .2229.0585Zm-.7948.3606c-.126 0-.1841.1755-.378.1073.1163-.3899.0582-.3314-.0775-.6239.3295-.0877.2811.2827.4168.5166h.0387Zm-.6881.7311c.0775.2242-.349-.0585-.2811-.1365.0678-.078.2229.0975.2423.1365h.0388Zm-.6688.0975c.3974-.4289.2035.4093 0 0Zm-.2811 0c-.1551 0-.0872.3119-.3005.2339-.1066-.2339.2908-.4679.2617-.2339h.0388Zm-.6009.731c-.1454.0585-.252.1754-.3877.2339-.1067-.2924.3295-.5166.3489-.2437l.0388.0098Zm1.6962 1.6278a4.48228 4.48228 0 0 1 1.9385 0c0-.2729-.4071-.1267-.4556-.3802.2908 0 .4653-.2729.6591 0a.35226.35226 0 0 1-.0391.2118.35005.35005 0 0 1-.1547.1489h.126c.3803.1235.7219.3451.9906.6426.2687.2976.4551.6608.5408 1.0534.0185.1749.0185.3514 0 .5263 0 .0585.1066.156.1841.1657 0 .312-.2035.2632-.2907.4289-.1437.3715-.4108.6814-.7561.8773.5018.1023.9589.3606 1.3068.7384.3478.3778.5688.856.6318 1.367.3877 2.0566-1.2116 3.1483-2.9078 3.47a4.94546 4.94546 0 0 1-2.4716-.078c-.4131-.1282-.7843-.3661-1.0742-.6886-.29-.3225-.4882-.7177-.5735-1.1439a2.09666 2.09666 0 0 1 .077-1.3571c.1757-.4311.4898-.7905.8922-1.0212-.414-.145-.7785-.4052-1.0513-.7502-.2728-.3451-.4427-.761-.4898-1.1992a2.26329 2.26329 0 0 1 .0737-1.1952c.1314-.3845.3638-.7259.6726-.9882.6201-.4723 1.3582-.7625 2.1324-.8383l.0388.0098Zm3.8188 13.3829h.2133c-.0873.3216.1454.2046.2617.2339a.90955.90955 0 0 0 .0581.3216c-.2035.1365-.5815-.1267-.5719-.5653l.0388.0098Zm.4071 16.9795-.0678.3509a.45894.45894 0 0 1-.0873-.1169.57393.57393 0 0 1 0-.156l.1551-.078Zm-.5912-17.8178c0-.2729.0872-.3996.3004-.3704-.0387.2729-.1357.3899-.3392.3607l.0388.0097Zm0 .8285c-.1067-.0585-.3684.117-.349-.117.126 0 .2617-.5458.3586-.2046-.1841.0292-.0484.1852-.0678.3119l.0582.0097Zm-1.1438 12.954c.1745 0 .2617.1755.2617.4484h-.281c-.0485-.3217.0678-.2339-.0388-.4581l.0581.0097Zm-.1841-4.7761c.1284-.0918.2732-.158.4265-.1949.0678.3021-.3296.4386-.4265.1949Zm.0872-2.2711c0 .156.1066.1852.126.3314-.1454-.0682-.4652.117-.4846-.1267.2714.0975.2714-.1657.3974-.2047h-.0388Zm0-10.1273a.65565.65565 0 0 1 0 .3704.5093.5093 0 0 1 .0485-.3704h-.0485Zm-.8432 1.0332c-.126.2047-.6204.4386-.6688 0 .3392.1267.5912-.3704.7172 0h-.0484Zm-1.0662 8.8992c0 .3801-.4265.7018-.5816.3606.2136-.0846.4105-.2067.5816-.3606Zm-.727-8.0805c-.3295-.3703.3974-.7602.4944-.4776-.2714 0-.2811.3899-.4944.4679v.0097Zm-.5427-.77c.2229 0 .126-.3606.3004-.3704a.79348.79348 0 0 0 .0776.3802c-.1939-.1365-.3296.3606-.378-.0195v.0097Zm.3586 10.1956c-.2229-.0585-.2132.2242-.4749.1072.029-.4776.3973-.4191.4749-.117v.0098Zm-.7657-2.1639v.5068c-.4459-.0097-.2326-.4483 0-.5166v.0098Zm-.4847-7.0667h-.281c0-.2437.2811-.6336.3004-.3704-.1647.0292.0097.1462-.0194.3606v.0098Zm-.4167-1.4134c0 .1268-.0679.4582-.1067.234.0388-.078.0388-.2534.1067-.2437v.0097Zm-1.1631.5946c.1357-.0682.3004-.2242.4652-.2242v-.0974c0-.0975.1745 0 .1745.1364h-.0485c.0389.0209.0722.051.0969.0878.0291.3801-.6688.5068-.6881.0877v.0097Zm.4555 7.0765c0 .0585-.3392.2437-.3489 0-.0097-.2437.3295-.3217.3489-.0098v.0098Zm0-13.071s-.0581 0-.0775.0585a.61703.61703 0 0 1 .0581-.3704.97885.97885 0 0 1 .0097.3022l.0097.0097Zm.1066 3.6455c0 .2436-.1841.2144-.1841.1754 0-.039.0775-.2144.1744-.1852l.0097.0098Zm.0873 2.1638c0-.1754.1453-.3314.1647-.2437.0194.0878-.0969.2632-.1744.234l.0097.0097Zm.1454-1.0429c.0581 0 .0581-.117.1259-.0585.0097.2437-.1453.2437-.1356.0487l.0097.0098Zm.1744.0682a.91219.91219 0 0 1 0 .2437h-.0678c-.0097-.1267.0097-.2437.0581-.2534l.0097.0097Zm0 .4289v.1267c0 .0097 0-.078.0776-.0585v.1852c-.0776 0-.0679-.117-.1454-.0682-.0388-.117-.0194-.1657.0193-.195l.0485.0098Zm-.0775-.7408c.0969.0487.126-.2047.1744-.0585.0485.1462-.1744.1462-.2229.0488l.0485.0097Zm-.5234-10.293c.1841-.0488.1938-.3509.4846-.234.0969.3314-.4168.4777-.4846.234Zm.2132-3.0119h.1939c0 .1267.0678.1462.0872.2534-.1454-.0585-.3295-.039-.2811-.3021v.0487Zm.0776.6336c-.126.1559-.4071.0877-.3781-.273.223-.0682.3587 0 .3781.2242v.0488Zm-.4653 1.9494c-.1357 0-.1648.2047-.2908.2437-.0775-.2729.2617-.5654.2908-.2534v.0097Zm-.252-3.2751h-.3295c.1357-.0487.252-.0877.3295-.0097v.0097Zm-.3974 17.467c.1066 0 .2714 0 .2811.1365-.1357 0-.1745.2046-.3005.2436l.0194-.3801ZM58.9501 26.678c-.1163 0-.2229.2145-.2811 0 .1066-.0195.2229-.2241.2811 0Zm-.7367-.5263c.1357.3119-.3392.3509-.2907.117.1163-.0098.1357-.1657.2907-.117Zm-1.6671-4.8736c-.1551-.4191-.2132 0-.4846 0-.0582-.6141.8142-.5263.4846-.0097v.0097Zm0 .4484c.0776.4581-.4071.1072-.4846.3509-.0775-.4581.4168-.117.4749-.3607l.0097.0098Zm-.7948 2.0761c-.3392.3607-.2714-.4776 0 0Zm-.3392-2.3588c0 .2827-.0872.3996-.3005.3704 0-.3022.097-.4289.3005-.3704Zm-.7172 2.3296c.4652.1852.126.6043 0 0Zm5.7573 4.4934v1.6376l.0485-.0585c0 .3216.1163-.2437.2811-.0975 0 .2924-.1163.2144 0 .4386-.0679 0-.2617-.0877-.3199-.1754v7.1349l-2.617.5361v-6.5598l-1.638.3703-1.6671.3412-.5234-2.2029 6.4358-1.3646Zm0 11.336c.4071-.4289.2133.4094 0 0Zm-1.0662 3.9281c-.1453-.1072-.4167 0-.3295-.4484.1842.0683.3295.1073.3295.4484Zm-.4846-1.9494h-.2811c-.0097-.4484.378-.4386.3005-.0195l-.0194.0195Zm-2.0742-5.322h.0969v.1852-.0682c0-.0682-.1163.0195-.0969-.117Zm-.1163-.1949c.0775.078.1454-.1755.1745 0 .029.1754-.1648.1754-.1745 0Zm.0872 1.6083v.4873c-.0775 0-.0872-.1462-.1163-.2534-.0291-.1072.0776-.078.0776-.2437l.0387.0098Zm-.882 0c.0679 0 0 .2924.1163.3119a.86178.86178 0 0 1-.0872.3119 2.94345 2.94345 0 0 0-.0291-.6531v.0293Zm.1745.0682c0-.1267-.0873-.0585-.0969-.1852.0872.1072.0775 0 .1356-.117-.0193.1657.0485.2242-.0387.2729v.0293Zm0 .6823c.0069-.226.0328-.451.0775-.6726.1551.1268.0873-.0779.1842-.1852a4.3504 4.3504 0 0 1-.2908 1.5986c.0028-.2109.0455-.4193.126-.6141 0 0-.0388-.2242-.126-.1559l.0291.0292Zm.1066-1.2964a.35922.35922 0 0 1 .1842-.1754c-.0485.1559-.1842.4191-.2133.1462l.0291.0292Zm0-.3021c-.0775 0 0-.1755-.1163-.1268-.1163.0488.0581.312 0 .3607-.0582.0487 0-.117 0-.117a.16616.16616 0 0 1-.0171.0645c-.01.0201-.024.038-.0411.0525 0-.3509.126-.2827.0679-.5556.0581.1072.1648.1072.2229.1949.0582.0878-.1454.039-.1648.0975l.0485.0293Zm-.3683-1.9495c-.0776-.2632.2617-.5556.2908-.2339-.1842 0-.2133.1754-.3393.2144l.0485.0195Zm.5815 6.94c0 .2729-.0969.3996-.3004.3704a.68514.68514 0 0 0-.0873-.3801l.3877.0097Zm-.1938-7.3006c-.0679-.4094.3198-.1657.3974-.3607-.0291.3119-.2617.2924-.4459.3412l.0485.0195Zm.4168 4.0451c0 .1852 0 .2534-.1067.3021-.0484-.1657-.0484-.3021.0582-.3216l.0485.0195Zm-1.6284 1.0137c-.2326.1072-.4168.4581-.6978.2534l.6978-.2534Zm-2.6945-19.1045a.46436.46436 0 0 1-.2908.117l.2908-.117Zm-1.1437 0c-.252-.0488-.5816 0-.6204-.3314.252.2729.5331.0682.6204.3314Zm-.504 7.3299-.2908.1169c.0711-.1039.168-.1429.2908-.1169Zm-.2133.3996c.3001.1944.5766.4234.8239.6823.3023.2895.5662.6172.7851.9747.2488.4111.4504.8493.6009 1.3061.2429.5864.4343 1.1931.5719 1.813.1002.5023.1714 1.01.2132 1.5206.1205.5151.1919 1.0406.2132 1.5693.0127.5122.0776 1.0217.1939 1.5205.1715.5237.3107 1.0576.4168 1.5986v.3216c0 .1072-.4071-.1072-.6591-.2144s-.3489-.2047-.5816-.2924a3.37739 3.37739 0 0 0-.756-.2242 4.24005 4.24005 0 0 0-.8626-.078 3.72388 3.72388 0 0 0-.8723.0585c-.2421.0397-.4793.105-.7076.1949a5.03744 5.03744 0 0 1-.5913.2437c-.2035.0488-.1356.117-.3295.0488-.1669-.0742-.2989-.2104-.3683-.3802a4.69534 4.69534 0 0 1-.1551-1.6473c.0378-.4703.0378-.943 0-1.4133a11.98633 11.98633 0 0 0-.4265-2.1151c-.0872-.1755-.4071-.7311-.5428-.9748a1.535 1.535 0 0 1-.2423-.5653 6.04496 6.04496 0 0 1-.2132-1.2476c.0082-.3791.0635-.7557.1648-1.121.296-.5334.661-1.0251 1.0855-1.462l.4944-.5069c.1647-.1462.1066-.1754.3295-.2047.5115.1141.9999.3152 1.4442.5946h-.0291Zm-13.4532 14.689c-.6204.156-1.2698.4484-1.5605.3022-.2908-.1462-.1745-.2047-.1648-.4192.1388-.5198.3171-1.0281.5331-1.5205a2.2527 2.2527 0 0 0 .1938-1.0332 7.61787 7.61787 0 0 0-.2908-1.8325 8.4794 8.4794 0 0 1-.1938-3.1483c.0773-.6524.285-1.2824.6106-1.852.1745-.156.0873-.2242.3102-.2632.5234-.0974.6009 0 1.0371.2729.2116.1608.3922.359.5331.5849.4099.5579.6913 1.2005.8239 1.8812.1118.7524.1798 1.5107.2035 2.2711a17.9128 17.9128 0 0 0 .7657 3.0216c.1648.4484.4556.7798.2908 1.2184-.1648.4386 0 .7603-.4071.8285-.1745 0-1.3763-.4094-2.113-.4289a2.88771 2.88771 0 0 0-.6203.0878l.0485.0292Zm-.5816-29.9238c-.0775 0-.1938 0-.2035.1169-.0097.117.2229.0488.1841.2632-.252 0-.2326-.2729-.2617-.5166.1066.0097.2714-.0195.2811.1267v.0098Zm.0679-1.7545c0 .0682-.0485.2631-.1067.2436-.0581-.0195-.0193-.731.1067-.2534v.0098Zm0 4.8736a.06872.06872 0 0 1-.031-.0251.06881.06881 0 0 1-.0117-.0383c0-.0136.0041-.027.0117-.0383a.06808.06808 0 0 1 .031-.0251c0 .2925.2713.1462.2713.3899-.1938 0-.407.5459-.5718.0975l.3005-.3606Zm.3198 5.6728c.5132-.4995 1.1598-.8381 1.861-.9747.8111.0291 1.6029.2566 2.3068.6628.5603.2401 1.0578.607 1.4539 1.0722.1141.2056.1741.4371.1745.6725 0 .2242.0775.3802 0 .5751a1.4059 1.4059 0 0 0-.2133.3899.32276.32276 0 0 0 .0969.2242.55258.55258 0 0 0 .2036.1267c.1163.117.0775 0 .1648.2924.0488.1378.0689.2842.0589.4301-.01.146-.0499.2882-.1171.4179-.0775.117-.1842.1268-.2423.2437a.47948.47948 0 0 0-.0506.2145c0 .0744.0173.1479.0506.2144.0678.1754.2326.1754.3974.2632.1316.0895.2465.2017.3392.3314.0949.1319.1639.2808.2036.4386.1041.3161.1724.6431.2035.9747.0775.4191.1163.6531.1648 1.082.0385.3528.045.7084.0194 1.0624.0185.2753-.0077.5519-.0776.8188a6.65353 6.65353 0 0 1-.6881 1.3938 1.6505 1.6505 0 0 1-.5428.4581c-.2294.1506-.5025.2193-.7754.195a1.31355 1.31355 0 0 1-.5913-.2145c-.155-.0883-.2956-.2-.4168-.3314a2.26933 2.26933 0 0 1-.3683-.4386 4.68477 4.68477 0 0 1-.2908-.4679 4.1861 4.1861 0 0 1-.4555-.77.32329.32329 0 0 1 .0219-.1684.32075.32075 0 0 1 .1041-.1338c.126-.0877.2423 0 .378 0 .1357 0 .1745.1657.2811.2827.069.0953.1434.1864.2229.2729.1066.1267.1454.3022.3102.2924.1648-.0097.1938-.1364.2714-.2534.0775-.1169 0-1.1306.1357-1.4036.1357-.2729.2132-.2047.1841-.3606a.28283.28283 0 0 0-.0593-.1302.28083.28083 0 0 0-.1151-.0843c-.1357-.0487-.223.0683-.3393.1365-.1163.0682-.2423.2242-.4168.3412-.1744.1169-.7366.4678-.8917.5458-.2047.1113-.4366.162-.6688.1462a.9644.9644 0 0 1-.5912-.1365 11.82172 11.82172 0 0 1-.9693-1.1599 4.52717 4.52717 0 0 1-.504-.5751 1.56722 1.56722 0 0 1-.3198-.4581c-.0679-.2144-.2133-.3996-.0872-.5848a.41772.41772 0 0 1 .1453-.1462c.1067-.0877.2811-.1365.3974-.2144.1163-.078.1939-.0878.2714-.195.0776-.1072.1357-.1657.1066-.3119a.40008.40008 0 0 0-.0663-.1457.39733.39733 0 0 0-.1178-.1077c-.1357-.1072-.2423 0-.4168 0-.1745 0-.4459.3411-.6688.2826-.2229-.0584-.3198-.7115-.3683-.887a1.54882 1.54882 0 0 1 0-.7895.78624.78624 0 0 1 .3683-.3411c.1246-.0604.2544-.1093.3877-.1462.1742-.0687.3522-.1273.5331-.1755.2545-.0482.488-.1742.6688-.3606.0872-.0878.6979-.3119.6882-.4289-.0097-.117-.9693-.1267-1.861.2242a.17624.17624 0 0 0 .0355.1183.17426.17426 0 0 0 .1044.0654.1731.1731 0 0 0 .1213-.02.1747.1747 0 0 0 .078-.0955c0 .2827 0 .4581-.2229.4191-.2229-.0389-.2132-.3216-.1745-.4581-.3307.1242-.6338.313-.8917.5556-.126-.0975-.1551-.5361-.1841-.692a2.5265 2.5265 0 0 1 .281-.9748c.2675-.4043.5906-.7686.9596-1.0819l.0097-.0195Zm.2326-5.0198c0 .2437.1163.2534.1745.3802-.1745.3703-.4556-.2437-.1842-.3607l.0097-.0195Zm.2908 2.1444c0-.2339.0582-.5361.3005-.4874 0 .3314-.2326.3119-.3102.5069l.0097-.0195Zm3.0629-3.2848c.0775-.2339.2907-.078.1066-.3704l.1454-.0585v-.1852c.126-.0487.2035-.1559.2035-.3704h.0969v-.1267c.1163 0 .0776.2242.1745.2632l-.0582.2242.1357.1559a.98082.98082 0 0 0-.0701.4468.97924.97924 0 0 0 .138.4305h-.5719c0 .1462 0 .3606-.1066.3704l-.1066-.1852-.1745.0487v-.117l.1745-.2144-.0872-.3119Zm.8044 3.5577c-.2035.2632-.3586.2437-.4652-.1462.3005.1267.3877.0292.4652.1755v-.0293Zm.126.5751.2811.1365a.54162.54162 0 0 1-.2811-.1073v-.0292Zm.7367-1.735-.2036.2437c.0873-.0975.0873-.1852.2036-.2145v-.0292Zm-.126-1.9494c.0775-.0488.0581.0974.126.0682.0097.2339-.1163.1365-.1163-.0682H41.93Zm1.5605 2.8461c0 .3119.3586.2827.252.7701-.1745 0-.2036-.1462-.3683-.1365v-.1949l-.1357.0584c.0678-.2729-.2617-.4093.1066-.3703l.0969-.0585a1.7842 1.7842 0 0 1 0-.2924l-.0872.3314.1357-.1073Zm.2326 6.053c-.126-.0682-.252.4777-.2908.117.0969.0195.2132-.5361.2908-.117Zm-.4556-5.5364-.63.7311c-.0291-.5069.4071-.5166.63-.7311Zm-.7366-.1754c-.0582-.3119.4265-.5069.4846-.2242-.1938.039-.1938.3509-.4846.2242Zm0-2.0469c0 .0877-.0582.1267-.1454.1072.126-.5751.378.2242.4846.3412-.2713.1364-.1744-.312-.3004-.4484h-.0388Zm-2.2777 26.912c.0632-.2255.1801-.432.3405-.6019.1605-.1698.3596-.2978.5802-.3729.2714-.1169.9693-.3314 1.3667-.4386.3974-.1072.9692 0 1.3957-.0975.7754-.1462 1.3376-.4386 2.0064-.5848 1.076-.4389 2.0896-1.0191 3.0144-1.7252l.4555-.3509c.132-.0831.2758-.1455.4265-.1852a3.85743 3.85743 0 0 1 1.7931-.234c.4343.057.8585.1751 1.26.3509l.5428.3412c.0582 0 .126 0 .2229.1072.1793.0852.3406.2043.475.3509.0872.2047 0 .3606-.0873.5751-.0872.2144-.7075.7213-.882.8967-.5097.42-1.0545.7951-1.6283 1.1209a7.29363 7.29363 0 0 1-2.0742.6726c-1.5605.3119-3.4506 0-5.1468.2144-.1733.0761-.3208.2016-.4241.3609a.97799.97799 0 0 0-.1574.5359c0 .3509-.1745.8187-.3296.8675l-1.6089.7213a1.50418 1.50418 0 0 1-.6386.0266 1.50752 1.50752 0 0 1-.5924-.2411 1.20748 1.20748 0 0 1-.3417-.4335 1.21448 1.21448 0 0 1-.1138-.5412 2.4383 2.4383 0 0 1 .1454-1.3353Zm7.754-20.5861c0-.3119.1745-.1657.1454.0682-.0485.039-.0388-.1072-.1163-.0682h-.0291Zm.7754-2.3881c.0775.2632-.3295.4582-.2908.2437.1745-.0097.1163-.3216.3199-.2437h-.0291Zm-.9693-4.084.2036-.6238a.78112.78112 0 0 1 .4362-.0878l-.4362.0878a.7451.7451 0 0 1-.0293.3358.74096.74096 0 0 1-.1743.288l-.1841.5848a.7132.7132 0 0 1 .0616-.3237.7116.7116 0 0 1 .2001-.2611h-.0776Zm-.0872 3.1581c-.0581.0779-.4555.2826-.4749 0 .1454-.0878.504-.2925.5525 0h-.0776Zm0 2.6414c-.3392.3704-.2714-.4776 0 0Zm-.3102.3704s.1261.117.1067.2145c0-.1365-.4362 0-.3877-.0975.1647-.2632.4361-.1267.3586-.117h-.0776Zm.5913 3.8989a.34166.34166 0 0 1 .0581.1302c.01.0471.01.0957 0 .1427 0 .1657-.155.195-.2713.3119-.1164.117-.6591.6921-.7851.8578-.126.1657-.3393.3801-.5331.6531-.1555.1954-.2828.412-.378.6433a2.58466 2.58466 0 0 0-.1454.8675 4.07564 4.07564 0 0 0 0 .77c.0195.3467.078.69.1744 1.0235.3899.7057.7362 1.4349 1.0371 2.1833.3005 1.5206-.2326 2.0469.1164 3.2751.1356.4873 0 .692.3973 1.0234.1164.1072.2133.1267.3393.2242s.252.1462.3005.3509a.6468.6468 0 0 1-.0776.4289c-.1066.2047-.5815.3899-.8626.5458a5.65505 5.65505 0 0 1-1.6574.7701 21.4811 21.4811 0 0 1-2.9078.5068c-.3974 0-1.0662.1657-1.4054-.0585-.3393-.2242-.5622-.926-.7367-1.2769a4.65876 4.65876 0 0 1-.3392-.9747 9.5917 9.5917 0 0 1-.2423-1.5498c0-.3606-.1648-1.3646-.2229-1.6375a6.43424 6.43424 0 0 0-.1842-.8577 9.30745 9.30745 0 0 0-.6494-1.5109 6.44064 6.44064 0 0 0-.9693-.9747 2.08663 2.08663 0 0 0-.4943-.2826 1.23354 1.23354 0 0 0-.4071-.1268 1.43108 1.43108 0 0 0-.4071 0 .21226.21226 0 0 1-.0706.0498.21337.21337 0 0 1-.0844.0175.2135.2135 0 0 1-.0845-.0175.21328.21328 0 0 1-.0706-.0498c-.0969-.0974 0-.2241.0969-.3509.0969-.1267.5525-1.0234.5525-1.0819.057-.117.153-.2102.2714-.2632.3142-.1077.655-.1077.9692 0 .2279.1033.4299.2565.5913.4484.2132.2437.8432 1.2281 1.0952 1.5595.1685.2394.3673.4556.5913.6434.4112.3377.9149.5417 1.4442.5848.4876.0404.9769-.054 1.4151-.2729.3485-.3158.6233-.7053.8045-1.1404a6.86406 6.86406 0 0 0 .1453-1.5693v-.9748c-.0167-.509-.062-1.0166-.1356-1.5205a8.55614 8.55614 0 0 0-.2714-.9747c-.0776-.2437-.2617-.4777-.1842-.6823.0775-.2047.9693-.234 1.2697-.2535.3005-.0195 1.5702 0 1.9385.0585.3654.0233.7219.1229 1.0468.2924l-.0775.039Zm-3.6153-10.332.0581.7115c.0552.1169.0912.242.1066.3704a2.56918 2.56918 0 0 0-.3392.6239l.2326-.9748a1.09756 1.09756 0 0 1-.0581-.731Zm.3586 3.8014h-.2811c-.1454-.1949 0-.5263.2133-.6141.0882.1919.112.4074.0678.6141Zm.2714.3899a.3863.3863 0 0 1-.2262-.0721.38909.38909 0 0 1-.1421-.1911c.1938.039.4846-.1072.3683.2632Zm.2132-.4874c.1357-.2826-.2326-.4873 0-.5068 0 .1559.4459-.0683.5622.2729-.252-.0292-.1842.4191-.5622.2242v.0097Zm.5234 5.9263v.2534c-.2423.1852-.2617-.4386-.0775-.3801-.0097.039-.0097.1462.0775.1267Zm1.2504-2.8364c-.1454 0-.0873.3119-.2908.2339-.0776-.2632.2617-.5556.2908-.2339Zm-1.0371-7.3396v.3801l-.1551-.039h-.3393l.1163.156c0 .3899-.4749.1949-.7657.2242-.0775-.6531.4265-.4484.6882-.6044v.2242c.1-.0089.2005-.0089.3005 0l-.1066-.1852c-.0097-.1852.1066-.1754.2617-.1559Zm-.3393-.9748c0 .1657.1551.1268.1745.2632-.2133 0-.1163.3509-.3005.3607-.1163-.2145-.1163-.6726.126-.6726v.0487Zm-1.7543-1.2476c.1454-.77.4749-.2924 0 0Zm-.1745 2.0079-.1454.0585c.2071.0425.4003.1363.5622.2729v-.1949c.0581-.1852.1551-.3119.2132-.4971l.1357.0682a.57548.57548 0 0 1-.1443-.2331.57864.57864 0 0 1-.0205-.2737l-.0581.1851c-.1066 0-.1454-.1462-.1745-.2534l.1745-.1072v-.2632c.3101.0975.1648-.2437 0-.2534v-.1267l-.378.4484c.0581-.2145.1841-.4582.378-.4484v-.117c.1043-.2401.1792-.4922.2229-.7505.2326 0 .4556 0 .5719-.0975 0 .4289.4749.2145.4555.6433l-.1066.117c.1163 0 .2132-.0487.3392-.0487l-.3392.0487.0969.1365v.1267c-.2907.0779-.1647-.3607-.4652-.2729 0 .3898.3295.3996.4555.6433-.2229.0877-.3004.3704-.407.614l-.1454-.0682-.1357.0585c0-.1267-.0776-.156-.0873-.2534-.0097-.0975-.1163.1949-.1163.3704-.1163 0-.1647-.1755-.3489-.1463l.1066.3217v-.1852c.1648 0 .2423.1072.2714.2632l-.1939.1754.1842.195c0 .1657-.126.1754-.1163.3801l-.1648-.0682-.1163.1754c-.1648 0-.2423-.1072-.2811-.2631l.1454-.0488-.5621-.2729v.1852c0 .3217-.3684.7018-.4944.3606.1163 0 .1066-.1949.1066-.3703 0 0-.1066 0-.0872-.1365l.1454-.0585-.1357-.0682c0-.2145.1745-.2729.3877-.234l-.0581.1852.1453-.0584c.1454.0097.2036.0292.1745.1364h.0097Zm-1.4151-5.6436c-.1551.0585-.2132.2632-.4362.2047-.0387-.3022.3586-.4386.4265-.2047h.0097Zm-1.3182-1.23789a.65606.65606 0 0 0 .0582.3314c-.1164 0-.2424 0-.223.2047.252.08772.3102-.17545.5622-.08773-.0582.38989-.4943 0-.5719.51662-.2423-.0682-.5137-.0975-.4749-.55561.378.37039.2811-.52635.6494-.40938Zm-.2908-1.53031c-.2132-.05848-.1744.33141-.4264.20469-.0097-.30216.3974-.44837.4555-.20469h-.0291Zm-.882 1.0527c-.1745 0-.2229.15595-.3586.20469v-.21444s-.0776 0-.0582-.11697c.1551.06824.4459-.11696.4459.12672h-.0291Zm-.2811 1.7837c.1066-.0487.2423-.1462.0969 0 .1842.117-.0581.5459-.0969.2535.1357-.0293.0873-.1365.0291-.2535h-.0291Zm-.8238-3.48946c0 .14621.155.29242 0 .37039.0096-.1462-.1454-.29241.029-.37039h-.029Zm-.097 5.21476h.1939v.2534h-.1939v-.2534Zm-.9692.4581 1.2212.4289h.475a.54836.54836 0 0 1 .0466-.3625c.0565-.1118.1495-.2007.2635-.2516v.1852a1.89997 1.89997 0 0 0 0-.6141c.378-.614 1.3667-1.2866 1.5896-.1364.378 0 .5816.4483.7076.848l.155.1949c0 .1267-.0775.1462-.0969.2437l-.1454.0585c.1309.095.2427.2141.3296.3509v-.2729c0-.0683.0775-.1365.0872 0 .0097.1364.1163 0 .1066-.117l.1745.0682.1163-.1852c.2423 0 0 .4874.3586.3899v.1852c.1348.0623.2789.1019.4265.117.1112.2918.1112.6146 0 .9065-.2132.1072-.3877.4386-.6494.2436a.74002.74002 0 0 1-.3586 0c-.1842.1073-.3586 0-.5428-.0487h-.3489l.1357.0682c0 .3119 0 .6141-.2133.6239.0776-.3314-.1841-.2535-.2714-.3899l.0582-.2242-.1357-.156h.2035v-.2729a.3681.3681 0 0 1 .1504.0388c.0467.0236.088.0568.121.0977v.1852a.53906.53906 0 0 1 .349 0l.5427.0487h.3587l.0872-.9747-.126.1754c-.1163.0488-.1939.156-.2035.3704l-.1648-.0682-.1066.2437c-.2133-.1755-.1551-.6823-.2424-.9747h.2036l-.3489-.4094v.1949c-.3587 0-.2811.1267-.5719 0 .1454.2534 0 .1657 0 .5069l-.1357-.0683-.0582.1852h-.2035c0-.5361-.1648-.6433.2132-.7505l.1067.1949.1744-.0584.0582-.1852-.1454-.0683v-.1267l.2326.078c-.2893-.2939-.4558-.688-.4652-1.1014l-1.4442.6335.1454-.0584c.0428.0098.081.0339.1084.0685a.19547.19547 0 0 1 .0423.1215c0 .0442-.0149.0871-.0423.1216a.19376.19376 0 0 1-.1084.0685c0 .2924.4167.0877.4749 0-.0923.3744-.072.7679.0582 1.1307.0872 0 .1066.1072.1744.1364v.1267h.0969c0 .1657-.1356.1755-.1163.3802h-.1357l-.0581.1949c-.3296-.2631-.6882-.7797-.9693-.7992.2327-.0683 0-.5849-.0678-.6336-.2765.0204-.5444.106-.7818.25-.2375.1439-.4378.3421-.5849.5785-.155-.1267-.1841-.3996-.2617-.6336l.0582-.1949-1.2503.3119c.4264-.1267.7851-.5069 1.2503-.3119v-.1852c.3489-.2144-.1163-.3996-.1648-.5069-.0484-.1072.0969-.0682.0873-.1657l-.0291-.0487Zm-.1939-2.1444c-.1744.6823-.6203 0 0 0Zm-.5428-.79925c-.0775.14621.1164-.12671.097.12672-.1067.08772-.126 0-.2327 0 0-.21444.0873 0 .0873-.17545v-.06823c0-.06823.0775.03899.0775.11696h-.0291Zm-.1841-.38014c0 .07798 0 .06823.0678.06823 0 .20469-.1066.06823-.0872.30217-.0872 0-.1066-.10722-.1454-.1852a.26102.26102 0 0 0 .1222-.06582.264.264 0 0 0 .0717-.11938h-.0291Zm-.5816.3509V9.523c0-.07798.0873.10722.0873.24368 0 .13646.0775.08772.1163.13646a.2032.2032 0 0 1 .1357-.09747c0 .24363.3101.10721.2811.38993-.1454 0-.1939.0584-.2714.1072 0 .2437.155.1754 0 .2826a.30443.30443 0 0 1 0 .1268c-.097 0-.1454-.078-.2036-.1365a.66551.66551 0 0 1 0-.2437.15402.15402 0 0 1-.0872 0 .2175.2175 0 0 1 0 .078v-.195s-.126.0878-.1357-.1169c-.0097-.20471.1163 0 .1454 0 0-.15597-.0969 0-.0679-.25345 0 .05849-.1647.12672-.1744 0-.0097-.12671.1744-.09747.1744-.19494Zm.1163 5.49739a.86333.86333 0 0 1-.2907.2437l.2907-.2437Zm-.3295-4.4934-.4265-.3802c.252-.0779.3877.1755.4653.3802h-.0388Zm-.8723 0c.0969 0 .1163-.0975.1938-.117 0 .1657.1648.1267.1842.2632-.1357 0-.1939.1657-.3877.1072l.0097-.2534Zm.4167 6.1115h.1454l-.0969-.0585-.8239-.0683c.2756-.0128.5512.0235.8142.1073l-.0388.0195Zm-.7754 2.6707c.1842 0 .4071-.0585.4168.2144-.1454-.0195-.378.039-.378-.2339l-.0388.0195Zm.3974.6823c0-.078-.155-.0585-.1647-.2534.1357-.0195.1841.0877.2423.2339l-.0776.0195Zm-.6881-6.2772-.475.0975a.63669.63669 0 0 1 .2444-.1141.63516.63516 0 0 1 .2693-.0029l-.0387.0195Zm-.5137 27.4773c.4943-.3606.2229.4484 0 0Zm0 3.6357c.0775.2534-.3296.4581-.2908.2339.1841-.0292.126-.3509.3295-.2534l-.0387.0195Zm.0872-29.0369c-.0679-.0584-.0582-.1851-.0679-.2729l.0679.2729Zm-.2229 1.2477c0 .2047 0 .1949-.1067.1754-.1066-.0195.097-.1754.1454-.1949l-.0387.0195Zm-.2424.2339c0-.1364 0-.4581.126-.4289-.1066.4387.0873.9163-.1647.9748.0969-.156.1744-.5069.0775-.5654l-.0388.0195Zm.475.9747c-.252.156-.6785.3802-.756-.1559.4167.1852.7463-.2827.7948.1754l-.0388-.0195Zm-.349 1.3354c-.3489.2144-1.2988-.2339-.8335-.1267.4652.1072.8336-.2339.8723.1462l-.0388-.0195Zm-.0969 16.1706c0 .1949-.126.2826-.1454.1267-.0193-.156.1163-.117.1842-.1072l-.0388-.0195Zm-.5137 1.4816v.2631c-.1551.1462-.252.1365-.3004-.1462a.35548.35548 0 0 0 .1823-.0039.357.357 0 0 0 .1569-.0936l-.0388-.0194Zm-.1551-20.7323c-.1841-.0975-.2714-.3022-.3974-.4776l.3974.4776Zm-1.6865 13.5876s0-.0488.0582-.0585c0 .1559 0 .3216-.1163.3119v-.2534c-.0291-.3412.0291-.1462.0581 0Zm-.5621-7.2617c0 .2145-.0873.3119-.2036.3607a.7342.7342 0 0 0-.0872-.3802l.2908.0195Zm-1.2698 3.6942s0 .1365-.0581.1852c-.0582.0487-.1648-.0585-.1648-.2534.0766.0142.1514.0371.2229.0682Zm-.9692 3.9768c-.0872.117-.1357.3509-.2423.4192.0484-.2145.1744-.5361.2423-.4192Zm.5815 3.9672a4.38615 4.38615 0 0 1 2.0742.0584c.3816.1244.724.3474.9928.6468.2687.2994.4545.6646.5387 1.059.082.3187.0747.6541-.0211.9689-.0958.3148-.2764.5968-.5217.8148a.25485.25485 0 0 1-.0463.1427.2533.2533 0 0 1-.1185.0913c.4468.1245.8541.3629 1.1825.692l.1842-.4679a.63803.63803 0 0 1-.3199-.1949l.3199.1949v-.6043c.3004.0585 0 .4289 0 .6043a1.5966 1.5966 0 0 1-.0776.4874h-.0678c.3142.379.5188.8376.5912 1.3256a2.53775 2.53775 0 0 1-.0814 1.4747c-.1727.4724-.4819.8822-.8878 1.1766a.52226.52226 0 0 1 0 .1559.24296.24296 0 0 1-.0688.066.24109.24109 0 0 1-.0887.0343.23982.23982 0 0 1-.0951-.0026.24225.24225 0 0 1-.0867-.0392c-1.2468.7043-2.7172.893-4.0999.5263l-.3296-.1364a.60816.60816 0 0 1-.4249-.0833c-.1268-.079-.2204-.2019-.2632-.3456.0525.0352.112.0585.1744.0682-.421-.3498-.7087-.8354-.8141-1.3743v-.5264c-.1357.195-.4944.2437-.5525 0 .3489.1462.3101-.2534.5621-.2436.0175-.3423.1243-.6739.3098-.9614.1855-.2875.443-.5207.7467-.6762-.4151-.1445-.7811-.4043-1.0556-.7493-.2744-.345-.4461-.7611-.4952-1.2001a2.26433 2.26433 0 0 1 .0764-1.1899c.1314-.3825.3628-.7223.67-.9837.6181-.451 1.3436-.7301 2.1032-.809h-.0097Zm4.1194 8.636c0 .3314-.1551.4873-.1648.2631.0775-.0585.0775-.2924.1745-.2631h-.0097Zm-.9693 5.4389c-.126.0877-.1648.6238-.3004.5458.1841-.0682.252-.653.3586-.5458h-.0582Zm-1.1049 6.1602c.0872-.1072.2811.1072.3004.1462.1454.2339-.3198-.0585-.2423-.1462h-.0581Zm.2714.6823c-.5234.3509-.2133-.6531 0 0Zm.0097-5.0295c.0581-.0683.1744-.3412.2132-.234.0388.1072-.2132.4387-.2132.234Zm-.9693-1.082c.1551.0975.2423-.3801.3295-.2339.0873.1462-.3295.4776-.3295.2339Zm.4071 3.0411c0 .1852-.0582.195-.1357.1755-.0194-.195.0485-.195.1163-.1755h.0194Zm.0485 2.1444c.1453.3802-.2908.5946-.3102.2632.1551-.0487.0872-.3801.3102-.2632Zm0 2.2809c.4943.1949.1356.6335 0 0Zm.0581-7.7198c0-.2729.0872-.3412.1842-.3607.0097.2632-.097.2535-.1745.3217l-.0097.039Zm-1.9385.8188c-.1842-.3412-.4168-.7701 0-.9748 0 .2242.0678.2535.1938.273v-.2632h.2617v-.2632c.1551-.2047.4168-.078.4944.156-.0291.7018-.4944.8187-.9111 1.0332l-.0388.039Zm.4555 3.5284c0 .2925-.1647.4582-.2132.3607.0458-.1336.1184-.2564.2132-.3607Zm-.4652-2.1151c-.1112.311-.2788.5985-.4943.848.1376-.304.3135-.589.5234-.848h-.0291Zm.9693 1.4621c-.0776.1852-.1551.3314-.3199.3899l.3199-.3899Zm-.1357-2.7877c.0969-.0877.252-.3704.3586-.2339-.0776.0779-.2229.3898-.3296.2339h-.029Zm1.0758-5.7509c.1163 0 .0873-.2144.1939-.2436.126.2631-.1454.5945-.1648.2436h-.0291Zm-2.5782 9.0064a.50234.50234 0 0 1-.3101.1268l.3101-.1268Zm-.5331-8.1096a.97956.97956 0 0 1 .126-.6628h.3005c.0097.3996-.2229.4971-.3974.6628h-.0291Zm-2.2099 8.2656c.2326-.1657.4168-.4484.727-.3996-.1357.2631-.504.653-.727.3996Zm.4556 9.5815c-.1454 0-.1648 0-.252-.1267.1647.039.252-.039.2811.1267h-.0291Zm-1.861-8.4021c.1066-.1072.2132-.2144.3296-.3119-.1067.078-.2327.0877-.2133-.0487.0194-.1365.0969-.3314.3199-.2535a.25535.25535 0 0 1 .0012.1363.25312.25312 0 0 1-.0691.1172 2.3425 2.3425 0 0 1 .7463-.5166c0-.2437.1648-.1852.1745 0-.3877.2729-.8529.8187-1.26.8772h-.0291Zm.9693 4.2693c.4652-.3314.2132.4191 0 0Zm.1163 12.3691c0-.1559.126-.1657.1066-.3703h.2132c0 .1267.0679.1559.0873.2534-.2908-.1365-.6397.4289-.4265.1169h.0194Zm.2714.3899c-.1648-.0779-.4071.3509-.475 0 .0388-.0877.4362-.2924.4556 0h.0194Zm-.5719-2.5342a.61732.61732 0 0 0-.0775-.3802c.1357.0683.4943-.1267.4749.1365-.1648.0682-.2714.1852-.4168.2437h.0194Zm.3295 3.6552a.70446.70446 0 0 1-.1066.3801c.2811 0 .3296.2047.4556.6433l-.1454.0585c.0063.0974.0063.195 0 .2924v-.2924l-.0582.1852h-.5621c0-.2437 0-.4289-.1745-.5166h-.5719l.0582-.1267v-.1267c0-.1267-.0678-.1462-.0872-.2535a.14586.14586 0 0 0-.0597.0176.14526.14526 0 0 0-.047.0409c.0049.0617.0049.1236 0 .1852h.0873V73.523h-.0873l.0485-.1267h-.0485a1.88727 1.88727 0 0 1-.2229.6433c0 .1072-.0484.2632.1357.3217l.2811.2631a.96647.96647 0 0 1-.1939 0 .87142.87142 0 0 1-.0872-.3021c-.1841.1852-.1163.3314-.2617.4678-.2035 0 0-.2047-.2423-.2339v.0585l-.0775-.0682h-.097c-.0872-.117.0873-.3315 0-.4484.0465-.0517.0886-.1071.126-.1657a.64835.64835 0 0 1 0-.0683c.1164 0 .0776-.1169 0-.2241l-.1357-.0683c.1842-.3314 0-.5556.0679-.9747.0348.01.0718.01.1066 0 .019-.1194.019-.2412 0-.3606a2.04005 2.04005 0 0 0-.2132-.2924c.1938-.1463.0484-.3314.0872-.5459h.3296v-.1754a.2549.2549 0 0 1 .031.1218.2549.2549 0 0 1-.031.1218l.0678-.0779c.126.0974.0969.2534.1066.3996h.0485c.3332.5151.8561.8762 1.4539 1.004h.0193Zm-.8141 3.1483a.25119.25119 0 0 1 .126-.034c.0442 0 .0877.0118.126.034.0775.0877-.3974.0877-.2714 0h.0194Zm-.2036-1.2964c0-.3216.1939-.4386.3102-.6238.0775.1462.0291.7603-.3296.6238h.0194Zm-1.3569-2.6317c.1163-.1365.1066.1364.2908.1267-.097.1267-.2908-.078-.3102-.1267h.0194Zm1.512-5.7314v-.3703c0-.0683.0776-.1073.1551-.0585 0 .2339-.0679.1754-.0679.3704 0 .1949.097 0 .1551-.117v.2437c0 .1072-.2035.0682-.2423-.0683Zm0-.6725a.18633.18633 0 0 0 0-.1267c.0776 0 .1551 0 .1648.1949 0 0 0 .1072-.0485.117.0679-.2437-.0678-.0195-.1163-.156v-.0292Zm.1648.3411c.0872-.1072.2714.0975.2811.1365.0872.2534-.349-.0292-.2617-.1072l-.0194-.0293Zm.1066-2.1833c.0582 0 .0582-.117.126-.0585.0679.0585 0 .4971-.1454.4873.0485-.1559 0-.1462.0194-.3996v-.0292Zm-.4362 2.2028c-.1163 0-.126.1657-.2132.1755v-.5556c.0582.1267.1745-.1072.2326.0682-.0387.0195 0 .2534-.0194.3412v-.0293Zm-.8044 2.0957c0 .0877.2132.1072.1066.2437-.1357-.0195-.1648-.078-.1066-.2145v-.0292Zm.1066.4971-.097.0585v-.2145c.0306.02.0555.0475.0725.0799.017.0324.0254.0687.0245.1053v-.0292Zm-.2617-.5264.0775-.5848c0 .1657.1939.3412.0776.4971l-.1551.0877Zm-.2714-.7407.0484-.1073.1164.0488c.0016.0357.0016.0715 0 .1072l-.1648-.0487Zm.0678 2.1151c-.0872.1267-.2326-.0975-.126-.1852s.0485.1657.126.2144v-.0292Zm-.2617-3.6552h.4168v.2144c-.1551-.0195-.504.2047-.4168-.1852v-.0292Zm.5913-4.3278h.0775v.2437H23.33c-.0679-.0292.0387-.1267-.0194-.2144v-.0293Zm-.3683-8.4215c.0678-.078.4943-.2924.504 0-.0582.1169-.4847.3411-.504.0292v-.0292Zm.4943 2.8267c-.3489.3898-.2811-.5069 0 0Zm-.3199.3899c0-.156.126-.273.2423-.3022a.72383.72383 0 0 1-.1647.4094.24582.24582 0 0 1 0 .1169v-.0584a.67005.67005 0 0 0-.097.1657v-.1755c0-.0585-.3101 0-.281-.0487.0969-.2242.378-.0878.3004-.078v-.0292Zm.6397 9.9128c0 .3314-.1744.0975-.2035.117.0678-.1365.1357.0292.2035-.0877v-.0293Zm-.0678-9.6009c0-.3314.1938-.1852.1648.0682-.0873.0877-.0776-.0682-.1648-.0682Zm.2229 9.4742c0 .0975-.1454.0877-.1163-.1267.0388.078.0969.078.1163.1657v-.039Zm-.1551-16.9796a.77462.77462 0 0 1-.0319.3703.7714.7714 0 0 1-.2007.312l-.2035.6239a.77411.77411 0 0 1 .0323-.3349.7723.7723 0 0 1 .1712-.289l.2133-.653a.87771.87771 0 0 1 .4652-.0975l-.4459.0682Zm.5816-1.2671a.91082.91082 0 0 1 .0872-.5361c.1551 0 .2617 0 .2714.2242-.2617-.1267-.2035.2242-.3586.3119Zm.1938 1.9494c0 .234-.1163.1657-.155.0585-.0388-.1072 0-.1072.0872-.1267.0872-.0195.0291.0682.0291.0682h.0387Zm.126 2.2224v.2242c-.155-.0878-.5524.1754-.4749-.234l.4749.0098Zm-.1647 1.1697c-.2714.1949-.2423-.5459-.0776-.5069-.0484.2437.0776.2827.0776.5069Zm.2423-4.7957c0-.2826.2132-.3898.1551-.3021-.0582.0877-.0873.3119-.1745.3021h.0194Zm.5525 1.1989c.0678 0 .1453-.2631.1841-.1169s0 .1364-.0581.1852c-.0582.0487-.1551.0682-.1454-.0683h.0194Zm.3877 8.2267c-.0582.0877-.2811.3704-.2424.2924.0388-.078.1551-.4289.223-.2924h.0194Zm.533-13.4609c-.0678-.117-.1938-.1072-.2326-.2729a.6672.6672 0 0 1 .378.2047c.1357 0 .1648-.2145.3974-.117.0873.2534-.1454.3217-.3198.2827v.1072c-.2908-.1072-.5816.1949-.2423-.2047h.0193Zm.1551-.8285h.0679c-.0147.123-.0147.2474 0 .3704v-.0585c0 .0195 0 .0585 0 0s-.0872-.1365-.0872-.3119h.0193Zm.2133.1949c.0581-.1559 0-.2924 0-.3704 0-.0779.1163.4387-.0194.3704h.0194Zm0 1.9495c0-.0975 0-.3412.0484-.3314.0485.0097.0679.0877 0 .2729-.0194 0-.0387.039-.0678.0682l.0194-.0097Zm0 .2242h-.1939c-.0678 0-.126 0-.0969-.1365s.0969-.2339.2132-.2632c-.0678.1755.097.195.0582.3997h.0194Zm.252 6.706c-.0776.1852-.2714.4971-.4265.5166.2617.2145.5428 0 .6397.3314-.2617 0-.6106 0-.6591-.3314-.0581 0-.1066-.0487-.1454-.1657.1939-.0195.4071-.3899.5719-.3411l.0194-.0098Zm.1066-3.7819c.0455-.0758.0973-.1476.1551-.2144l-.1551.2144Zm.2229 19.0655c.0582-.3412-.3489-.1267-.3683-.3899.1454-.2729.5525.3802.3683.4289v-.039Zm-.1163-12.6031c0-.3412.2229-.3119.4265-.3119.0097.4094-.3102.2047-.4265.3509v-.039Zm.378-6.9205c-.3295.078-.3489-.4971-.0775-.5069.1551.3022-.0776.2827.0581.5459l.0194-.039Zm-1.2116-8.8992c.1745 0 .5913.2827.2908.4191.0485-.3216-.4652.0488-.2908-.4191Zm.1551-3.8989c-.2326 0-.378 0-.3974-.2826.2327 0 .378.078.3974.3119v-.0293Zm-.5621 6.6671c0 .195.155.234.1841.4094-.1938 0-.2326.1365-.4071.117-.0193-.273.0388-.4679.223-.4971v-.0293Zm-.2714 1.5986c.5815-.0878 0 .8285-.1163.3898.1163.0098.1163-.1754.1163-.3606v-.0292Zm-.349 4.2497c0 .2437.1454.0585.223.0683.0581.4873-.3005.0779-.223-.039v-.0293Zm.097-8.0901c-.1357-.078-.4944.1267-.4653-.1462.2908.1072.3974-.2535.4653.2046v-.0584Zm-1.105-2.7682.0969.1949a.34233.34233 0 0 1-.0969-.1949l-.0872-.2047c.0559.065.0868.148.0872.2339v-.0292Zm-3.6638-.4094c0 .2339-.1938.2729-.1938.0585.0872.0682.0969-.078.1938-.0293v-.0292Zm-.2132.5751.4168-.6044 2.1905-.4678c-.0775-.0585-.1163-.1657-.0969-.3607.2132 0 .281.1462.3489.3119h.2326l1.2407 5.8484h.0775l.4168.5945-.0485.0488c-.2617 0-.2714-.4094-.3683-.6433h-.0775l.3198 1.54.2714 1.3549-2.743.614-1.3182-6.1407-1.512 1.0917-.3296-1.7058.6882-.9747c.0194-.3021.2036-.5458.2908-.4776v-.0292Zm.7754 12.0182c0 .4094-.5137.195-.8142.234-.0872-.6921.4459-.4776.727-.6433l-.0485.2339c.1193-.0105.2393-.0105.3586 0l-.1066-.2047c0-.156.1648-.1365.3102-.1267v.3996l-.1842-.0682h-.3586l.1163.1754Zm-.6882 4.2888c.097 0 .1648.0682.1066.2827h-.1066l.0582-.1852-.0582-.0975Zm-.5718-4.1815.0581.7602c.0666.1206.1094.253.126.3899-.1535.2041-.2745.431-.3586.6726l.2326-1.0625c-.1357-.2241-.0678-.4776-.0581-.7797v.0195Zm.3101 3.3822c.0894.188.1166.3998.0776.6044l-.3005-.3412a.5069.5069 0 0 1 .2229-.2827v.0195Zm.2908 2.1639c0 .2924.1842.5556-.1163.6238-.0679-.1072-.2132-.7797.1163-.6433v.0195Zm.7173-7.2129c0 .1754.1744.1267.1938.2729-.2326 0-.126.3802-.3198.3899-.126-.1949-.1261-.6628.126-.6628Zm-.1551-3.0801c0-.3412.3295-.5751.3489-.2145-.2132-.1072-.0872.3704-.3489.195v.0195Zm0 .1072c-.097.2924-.1648.6141-.3586.7505 0-.3021-.2617-.1072-.2811-.3314.1841-.1852.4167-.6823.6397-.4386v.0195Zm-.7367-1.9007c0-.1754 0-.3509.1164-.3022.1163.0488-.0388.3022-.1164.3022Zm-1.9385-4.0938c.252.1559.4944-.3802.6107 0-.2327.0975-.6204.4679-.6591 0h.0484Zm.5428-.7798c-.0581-.2339-.1938-1.0429.2423-1.1891.0419.2075.0376.4217-.0127.6273a1.43483 1.43483 0 0 1-.278.5618h.0484Zm.4556-1.3159c-.0679.3704.5524-.0877.4943.2827-.126 0-.126.2144-.126.3996-.3199.0293-.5525-.6433-.4168-.6823h.0485Zm.1938 1.4134-.2132.2534a1.1958 1.1958 0 0 1 .1648-.2534h.0484Zm-.1841 8.3533c.155-.8187.504-.3119 0 0ZM17.369 75.5991l-.0969-.0682a.41617.41617 0 0 0 0-.1169h.0969a.76276.76276 0 0 1-.0678.1851h.0678Zm-.0193-1.5205c-.1357-.0877.0872-.2145.1841-.117-.0581.117-.1551.0293-.1841.117Zm.5524 1.7642c.1163 0 .1163-.0877.1842 0-.0097.2924-.1551.0877-.1842.0293v-.0293Zm.6979-4.6689s-.0485 0-.0485-.0585c0-.0584-.0581.0683-.1066.0585 0-.2826.1648-.2047.1745-.0585.0097.1463-.0291.039-.0194.0878v-.0293Zm.3295-.848c0-.0877 0-.1169-.0969-.1267 0-.1949.0776-.1657.1163-.2437.0388-.078.0388.3802-.0194.3997v-.0293Zm.0776-12.2229.0581-.1657a.235.235 0 0 1 0 .1267s-.0193.039-.0581.0682v-.0292Zm-.2811-6.3844a2.08293 2.08293 0 0 1 0-.312h.0582l-.097.3509.097-.0682c0 .2632.2423.3022.2907.5459l-.3489-.5166Zm.1745-2.2516c0-.2047.0484-.2242.1066-.2437a.81927.81927 0 0 0 0 .1852c-.0097.0877-.0485.1169-.1066.0877v-.0292Zm0-.8383v.2047c0 .3411-.3877.7408-.5234.3801.1163 0 .1163-.2047.1163-.3996-.0582 0-.1163 0-.0969-.1365l.155-.0585-.1453-.0779c0-.234.1841-.2924.4167-.2535l-.0581.2047.1551-.0585c.0581 0 .1163.0001.0872.1365l-.1551.0585c.2196.0509.425.1508.6009.2924v-.2047c.0679-.1949.1648-.3314.223-.5263l.1551.0779a.64294.64294 0 0 1-.1475-.233.6471.6471 0 0 1-.0367-.2738l-.0582.1949c-.1066 0-.1453-.1559-.1938-.2729l.2035-.1169v-.273c.3296.1073.1648-.2631 0-.2729l.0582-.1267-.4071.4679c.0582-.2242.2035-.4874.4071-.4679v-.1365c.1122-.2523.1935-.5174.2423-.7895.2423 0 .4846 0 .6009-.1072 0 .4581.5041.2339.4847.6823l-.0776.0975a.28655.28655 0 0 0 0 .0877v.1852c-.3101.0877-.1744-.3704-.4943-.2827 0 .4094.3489.4192.4749.6921-.2229.0877-.3101.3801-.4264.6433l-.1454-.0682-.1551.0584c0-.1364-.0775-.1657-.0872-.2729-.0097-.1072-.126.2145-.1163.3997-.1357-.0488-.1842-.1852-.3781-.156l.1164.3509-.0485-.2047c.1745 0 .2617.1072.3005.2729l-.2133.195.1939.2144c0 .1657-.1357.1755-.1163.3899l-.1842-.0682-.126.1949c-.1745 0-.252-.117-.2908-.2827l.1551-.0584-.4652-.3022Zm.6009 18.2467c0 .0683 0 .156.126.1852-.1066.195-.3102-.1364-.1066-.1559l-.0194-.0293Zm.5719 2.0177h-.1163c-.0776-.1072.0678-.1852 0-.2437a1.17324 1.17324 0 0 0-.2133.4874c0-.156 0-.195-.0678-.3119-.0679-.117.0969-.0975.1841-.0585.0873.039 0-.3119 0-.3022 0 .0098 0 .1365-.1066.117.0776-.3412.2423-.2145.3199-.4192 0 0-.0679 0-.0679-.0682s.3102-.2339.3199.078c-.1357-.2144-.1163.3411-.2423.3606.0581.0293 0 .2827.0097.3899l-.0194-.0292Zm0 .1852c0-.2534.1357-.2145.1938-.3607 0 .1073 0 .3607-.0678.4289.0678-.1267-.0291-.117-.0582-.039l-.0678-.0292Zm.1938 7.7977c0-.1949.2036 0 .2326-.2339v-.078c.1842-.1072.3005.4484.3974.3704.1454.3217-.4749.2437-.5621.0682l-.0679-.1267Zm.5719-17.077c.0484 0 .0484-.1657.1357-.1073 0 .3509.0775.1755.0969.4972-.0775.0779-.0872 0-.1938 0a1.03702 1.03702 0 0 1 .029-.312l-.0678-.0779Zm.2229 14.0262c0-.1462-.1938 0-.0872-.1268.0775.0683.0581-.0974.1066-.1267.0485-.0292 0 .078 0 .0683 0-.0098.0872.2534.0485.2631l-.0679-.0779Zm-.3489-20.4789c.1454-.3021-.2423-.5166 0-.5361 0 .1657.4749-.0682.5912.2925-.2617-.039-.1938.4483-.5912.2436Zm.5428 20.7323c0-.1657 0-.2047.1066-.1852 0 .1852-.0388.1852-.1066.1852Zm.2907-6.823a.30338.30338 0 0 1-.0014-.1687.30117.30117 0 0 1 .0887-.1432c.0225.061.0299.1266.0214.1912a.40009.40009 0 0 1-.0699.1791l-.0388-.0584Zm-.1163-.4679c.1163 0 .0582-.2339 0-.3217.3296 0 .0679.3022.3393.4387-.0873 0-.349.1852-.3393-.0585v-.0585Zm.5719-15.459.0581-.195-.155.0585c0-.2339.1647-.3314 0-.3996-.1784.1551-.315.3529-.3974.5751v.0487s0 .1365-.0776.1462c0-.2632-.4168.3606-.4168-.1267a.76015.76015 0 0 1-.3322-.0076.76343.76343 0 0 1-.2978-.1484c.097-.5945 0-.5556.2423-.9747l.1454.078c-.0872-.3899.1842-.5556.378-.8188l-.2907.6238c.504.117.7657-.1072.7075-.7797l.0582-.1267v-.1365c.4168.1267 0-.4484.1357-.6628 0 0 .5621-.2339.2132-.3996l.1551-.0585a.59088.59088 0 0 1-.2437-.0883.5924.5924 0 0 1-.1828-.1847c0-.1072 0-.3703.0582-.5458l-.0679.2047c-.2423-.3704.2133-.926.6397-.7798v.2729c.0582-.0877.1357-.1852.1939-.2924a.45355.45355 0 0 1 .2697-.0039.45545.45545 0 0 1 .2246.1501c.1551-.1267.3199 0 .4943 0h-.4943v.5361c.0582 0 .0969.0683.0969.117a.29944.29944 0 0 1-.0872.0682v.0488l.3489-.3509c-.0969.1462-.1841.3216-.3489.3509l.252 1.2184.2423-.0098-.0581.195v.2046c-.1551 0-.1067.3217-.126.5264h-.4071l.0581-.2437-.5524.5556.1841-.0585c0 .1657.126.195.0872.3997l-.0581.2046v.195c-.2229 0-.2326.3314-.2229.6628l-.4265-.0487Zm.6009 5.2439c-.1648 0-.0969.3412-.3101.2535-.0776-.2242.2617-.5264.3101-.195v-.0585Zm-.2229 11.9014c-.4652-.1852-.126-.6044 0 0Zm-.1648-.6336c.0485-.2924.1163-.5361.3102-.6141 0 .2437.252.1657.1745.5069a.49202.49202 0 0 0-.2654.0148.4944.4944 0 0 0-.2193.1509v-.0585Zm.3974 1.9494c.0647-.1267.1739-.2248.3064-.2753a.56934.56934 0 0 1 .4109.0024h.1357l.0484-.2534a.3142.3142 0 0 1 .0031.132.3131.3131 0 0 1-.0515.1214c.1355.0593.2557.149.3514.2622a.97632.97632 0 0 1 .201.3909h-.1454l-.0581.1852s-.1551-.1365-.252-.1462c.0058.0648.0058.1301 0 .1949 0 0 .0581.0877 0 .1949h-.1745l.9693.9163c-.4246-.0488-.8189-.2453-1.1147-.5556v.0585c-.0969-.1072-.2132-.2047-.2035-.3509h.1163v-.1072a.54872.54872 0 0 1 0-.1268l-.1745.0488c.097-.3704-.2326-.4094-.3683-.6823v-.0098Zm2.5104 5.0686-.1745-.2535a.26088.26088 0 0 1 .1155.0146.2628.2628 0 0 1 .0978.0634.30396.30396 0 0 1-.0388.1852v-.0097Zm.0872 1.1696c.126-.1657.1163 0 .3102.0683-.0582.0877-.223-.0683-.3102-.0683Zm.3296-.7895c.126 0 .1841-.1754.378-.1072.0194.3216-.378.4289-.378.0682v.039Zm.3974-.7798c-.0582-.1852-.3393 0-.2133-.2924.1648.1852.1551 0 .3683.0975-.0193.0877-.0969.0877-.155.1559v.039Zm-.0679-.4873c.1454.2631-.252.1072 0 0Zm.0582-1.4816c.1025-.1537.2193-.2973.3489-.4289l-.3489.4289Zm1.5217 2.4465-.1357-.0682v.195c-.3489.2729-.6785-.3315-.7269-.7896h.0872a.68409.68409 0 0 1-.099-.2589.68531.68531 0 0 1 .0118-.2772c.0678-.0584.155-.0779.2617-.1559l-.1357.5653h.1647l.1357.0585.0582-.1852c.1163 0 .1163.1657.2714.1365v.2729h.2035c.0291.2047-.0969.2437-.0969.4678v.039Zm0-4.1133c.0678-.1169.2035-.0584.252 0-.0775.1462-.0775.039-.2132-.039l-.0388.039Zm.4071 3.5675.0872.2534c.0097-.0974-.0097-.1949-.0484-.2924l-.0388.039Zm0-1.696h.1938c0 .1559.1163.1754.0776.3801h-.1842c.0582-.2047-.0581-.2242-.0291-.4191l-.0581.039Zm.9692 3.8111-.1453-.0682v.195c-.3587.2826-.6785-.3315-.7367-.7896h.0969a.25123.25123 0 0 1 0-.0682l.5234-.117s.0873.1073.1842.0878v.2729h.2132c.0873.1949-.0387.2242-.0387.4483l-.097.039Zm.2424-6.5306c.0872-.1072.2713.1072.281.1365.1745.1852-.252-.0975-.1841-.1755l-.0969.039Zm4.6233-1.0332c-.126.3314-.5525.0877-.9014.156-.63.1169-.9693.2339-1.5993.3801-.9692.2242-1.5411.3314-2.5297.5459a7.41253 7.41253 0 0 1-1.2891.2729c-.3587 0-.6107.0877-.9111-.0975a.88227.88227 0 0 1-.3064-.262.88992.88992 0 0 1-.1589-.3716.71488.71488 0 0 1 0-.3801.31132.31132 0 0 0-.1357.156l-.0581.1267v.1267h-.097l-.0969-.195a.72296.72296 0 0 1-.1248.3139.71773.71773 0 0 1-.2532.2222l-.1454-.0584.5234-.4777-.1745.0585c-.0872-.4581 0-1.1014-.4264-1.1501v-.1852c-.1525.066-.3118.1151-.475.1462l.475-.1462-.1357-.0683c0-.2242-.0582-.3314-.1745-.3899v-.1267l.0485-.1169c.1744-.117.2132-.4094.4071-.4874 0 .7408.3198.0682.6591.1462.0678.5946.3973.8773.5427 1.3939.2424-.2047 1.0565-.7311 1.2795-.9163.3278-.327.6921-.6148 1.0855-.8577.2303-.0733.4773-.0733.7076 0 .1873.0398.365.1159.5234.2242.1744.1169.5815.5555.7172.6628.0805.1163.1119.26.0873.3996 0 .2242-.2521.2534-.3587.4484-.1066.1949-.2617.2924-.1938.4776.0678.1852 1.1825-.1365 1.4733-.1852a7.07375 7.07375 0 0 1 1.5411-.2534c.126 0 .2326 0 .3198.1072.0873.1072.3005.1852.252.3216l-.0969.039Zm-2.365-1.1989a.42968.42968 0 0 1 .0852-.206.42619.42619 0 0 1 .1765-.1351.67454.67454 0 0 1 .4168 0c.1687.0617.3119.1783.4071.3314.0678.1072.1357.1754.126.3119 0 .2924-.4459.1852-.7366.1559-.2908-.0292-.2908 0-.3974-.1267a.42007.42007 0 0 1-.0738-.1574.42338.42338 0 0 1-.0038-.174Zm12.7554 2.4368a.34945.34945 0 0 1-.1058.1171.34911.34911 0 0 1-.1462.0584c-.2035 0-.756-.5264-.9693-.7018a3.34111 3.34111 0 0 1-.4167-.4874c-.1163-.2632-.504-.9357-.504-.9357-1.3376-1.7155 2.52-6.7548 5.7573-9.4938 3.0629-2.5927 6.5134-3.8989 8.607-3.8989.0872 0 .1745 0 .2229-.0877a4.19695 4.19695 0 0 0-.6494-1.2184l-.5912-.7505c-1.7059-1.2866-6.1742.5263-10.2741 4.2303-3.499 3.1678-5.6508 6.745-5.5248 8.8797a.86423.86423 0 0 1-.281.2144.37584.37584 0 0 1-.252 0c-.2036 0-.2036-.2534-.3393-.4289l-.7657-.9747a13.55642 13.55642 0 0 1-.9693-1.2866c-.1744-.2924-.6009-.9748-.7075-.9065-.1066.0682-.0969.5653-.1357.731-.0388.1657-.2617 1.5108-.3489 1.6863-.0873.1754-.0776.1949-.1842.2242-.1066.0292-.1938-.1462-.3005-.2535a3.56395 3.56395 0 0 1-.4458-.5653c-.3287-.4082-.6299-.838-.9014-1.2866v-.0585a1.2138 1.2138 0 0 0 0 .4191c0 .0975-.1066 0-.126-.0682s.0678-.2827.1163-.3899c-.1939-.3216-.2908-.5458-.4653-.8967-.1744-.3509-.281-.5556-.4458-.9748-.1648-.4191-.3393-1.2184-.4653-1.423-.126-.2047-.1647-.3997-.3198-.312-.1551.0878 0 .2145 0 .3509a3.40738 3.40738 0 0 0 0 .5459c.0207.2764.0662.5505.1357.8188a8.9119 8.9119 0 0 0 .6785 1.6667c.2229.3509.3295.5654.5621.9065.2309.3163.4835.616.756.8967.1814.2133.3756.4151.5816.6044.1938.1754.3974.1949.504.4386.0518.0988.0752.2102.0679.3217-.182.6521-.4254 1.2853-.727 1.8909a.42486.42486 0 0 1-.2714.0981c-.099 0-.195-.0347-.2714-.0981-.281-.1462-4.9432-2.0177-5.1176-2.1054a.31955.31955 0 0 1-.1272-.1067.32314.32314 0 0 1-.057-.1565l1.1922-3.8988.7754-2.9242c.126-.6336.2035-.9747.3586-1.5985s.2423-.8675.3877-1.4231c.1235-.2334.2024-.4879.2326-.7505-.5427-1.6571.5525-5.1758 3.8771-7.7393a5.77782 5.77782 0 0 1-.4265-2.1346c0-.5849-.0872-.9748.8917-1.1015.4037-.151.8232-.2557 1.2503-.3119a1.14346 1.14346 0 0 1-.0581-.1462l.1163.1462h.0582c.596.0037 1.189.0857 1.764.2437.4749.1072-.0969.2729-.0969.8383l.0872.4581a1.43698 1.43698 0 0 1-.4652.3996c-.2133.1755-.9693.731-1.4248 1.1014-3.5475 2.7877-5.6896 6.1213-5.1177 7.7978 0 0 .0872.3119.126.5166.0388.2047 0 .4289.1066.7018.0252.2053.0807.4057.1648.5946a.97394.97394 0 0 0 .3005.4191c.1163.078.2229.2047.3586.1267.1357-.078.0969-.1267.1163-.2339.0194-.1072-.1163-.234-.1745-.3997a1.14631 1.14631 0 0 1-.0775-.3606 1.689 1.689 0 0 1 .0678-.3022c.6077-2.8316 2.2246-5.3417 4.5458-7.0569.5331-.4192 1.4345-1.5498 1.9386-1.4914.504.0585.4264 1.3062 1.26 1.0527l3.1985-1.6082c.6397-.234.3005-1.3549.853-1.4426 0 0 .63.0585.7657.0585.558.1591 1.1052.3544 1.638.5848a6.9778 6.9778 0 0 1 1.3279.8675.27432.27432 0 0 1 .0218.1072c0 .0369-.0074.0733-.0218.1072-.0582.0975-.4556.1365-.5719.156-1.9385 0-4.8462 1.1112-7.754 3.3628-4.1872 3.2945-6.1548 6.7255-5.7477 9.6399.0315.1533.0769.3034.1357.4484.0776.1852.378.7993.4943.9747.1163.1755.349.7018.5331.7213.054.0145.1108.0145.1648 0-.3005-2.0372 1.2794-5.3804 4.9335-8.6165 1.9536-1.8386 4.2633-3.2522 6.7848-4.1523-.3489-.1072-.6979-.2534-.9693-.3314v-.117c.4029.1547.8179.2754 1.2407.3607a8.33925 8.33925 0 0 1 2.3843-.3997c.1094.015.2202.015.3296 0 .1066 0 .2229 0 .2617-.1364.0388-.1365 0-.1267 0-.2047a.62413.62413 0 0 0-.1745-.2534 21.64089 21.64089 0 0 1-1.7931-1.3257c0-.2631.3102-.2924.4943-.4776.4071-.3996 2.8012-2.6512 3.218-3.0313.4167-.3802.4264-.4094.7075-.6531.2811-.2437.3392-.4386.6591-.5361a.96335.96335 0 0 1 .4071 0c.2714 0 .3877.1754.6397.3022.7463.3704 3.5572 2.0956 4.8463 2.7877.8094.3194 1.5697.7526 2.2583 1.2866.2811.2632.3684.4776.6494.7213.2811.2437.9693.6043 1.1437.8187.4552.7166.8507 1.4697 1.1825 2.2516l.2521.5556c.3489.8285.8626 2.0664 1.0855 2.5635.2229.4971 1.0953 2.2126 1.2407 2.7487.1164.2733.163.5715.1357.8675-.046.2302-.1494.4449-.3005.6239 0 .0779 0 0-.0776 0v.0779c-.3004.5264-.533.7896-.8626 1.2867-.4749.7115-.6979 1.1501-1.2116 1.8227-.252.3216-.3198.6433-.6106.848.0317.0591.0576.1211.0776.1852v-.0585c.252 0 .2132.3022.3489.4191-.1357.1073-.4653.078-.6107.0878l-.1066.3119a1.26715 1.26715 0 0 1-.0775-.1657c0-.0975.0872-.2145.2132-.234h-.0872c-.0872-.1949.0485-.3021.2617-.3411h.0582l-.097-.1755-.1454.078c-.1647.0682-.2713.1462-.4458.0975a.36714.36714 0 0 1-.126-.0877.11653.11653 0 0 1-.0378.0254.11574.11574 0 0 1-.0446.009.11574.11574 0 0 1-.0446-.009.11547.11547 0 0 1-.0378-.0254.1841.1841 0 0 1 .1066-.0683s-.0678-.1072-.1066-.1657a1.19222 1.19222 0 0 1-.2229-.4776h-.1745v-.1169h.1454a.89134.89134 0 0 1 .0872-.3509h-.0678c-.0679 0 .0678 0 .1066-.0683a1.27334 1.27334 0 0 0 0-.1462c.1066-.4094.2132-.6238.3199-1.0234a26.1035 26.1035 0 0 0 .4555-2.6805c.0242-.4806.0242-.962 0-1.4426a9.44919 9.44919 0 0 0-.0581-1.657c0-.3899-.3199-1.4036-.4362-1.3061-.1163.0974 0 .1852 0 .3021 0 .3119.0581 1.5206 0 1.9495-.0582.4288 0 .809-.0582 1.3256-.0581.5166-.3004 2.2906-.3877 2.7877a6.64078 6.64078 0 0 1-.2617 1.6472h.1163c0 .1073-.0775.117-.0678.2242s-.0969-.0974-.1842-.1169a.60957.60957 0 0 1-.2229 0c-.4652-.1268-1.3279-2.0957-1.6865-2.8072a14.99237 14.99237 0 0 1-.9693-2.3686c-.1744-.5263-.0678-.9747-.407-1.3549a1.79981 1.79981 0 0 0-.3587-.3606c-.2132-.156-.8238-.4581-.8723-.6433a.41112.41112 0 0 1-.0132-.2547.40931.40931 0 0 1 .1392-.2132c.1163-.078.1745-.0487.3199 0 .1453.0488.2423 0 .2423-.0974 0-.0975-.126-.3607-.126-.5556a8.29892 8.29892 0 0 1 0-.9748 4.0769 4.0769 0 0 1 .2035-1.1891c.1357-.3704.4071-.4971.4556-.887 0-.1365.1163-.2632 0-.3607-.1163-.0974-.2133 0-.3393 0-.2714.078-.8141.9748-.9692 1.3452-.1551.3704-.6882 4.3375-.756 4.9905-.0679.6531-.2327 1.813-.1939 2.1249.0388.3119.1357.2924.1066.4776-.0291.1852-.2229.3022-.3586.4971-2.7651.6431-5.3435 1.9246-7.5311 3.7429a24.06376 24.06376 0 0 0-2.9078 2.7c0 .156 0 .3996-.0969.4776-.0013-.1601.0283-.319.0872-.4678-1.9385 2.1736-3.1113 4.318-2.9077 5.741a.74565.74565 0 0 1-.0582.2827Zm-9.9639-6.1407c0 .117 0 .2632-.0873.2437-.0872-.0195 0-.1267-.0581-.3119.0581-.0585.1163-.0585.1454.0195v.0487Zm-.1551-.4971v-.2437.2437s.0194-.0682 0-.0488v.0488Zm-.0679.5458c-.1357.0878-.0872-.6433 0-.3704-.1066.0683.0194.1755 0 .3217v.0487Zm6.9302-11.1605c-.1066 0-.1551.1365-.2035.2437a1.1028 1.1028 0 0 1-.4462-.244 1.11155 1.11155 0 0 1-.2905-.4188c.2327-.234.6688 0 .853.1657-.1745-.039.0291.0877.0872.2047v.0487Zm26.5867 7.2909a.39134.39134 0 0 1-.0594.2004.38836.38836 0 0 1-.1539.1407.31024.31024 0 0 1-.1553.1162.30883.30883 0 0 1-.1936.0008.30075.30075 0 0 1-.1333-.0742.30253.30253 0 0 1-.0799-.1305c-.0582-.1462 0-.2632.0872-.3996.0872-.1365.1551-.3412.3392-.3217.1842.0195.3587.2924.349.4192v.0487Zm-.9014.2339a.79244.79244 0 0 1-.2714-.0974l.2714.0974Zm-.7754.2827c-.1454.1754-.3877-.078 0 0Zm-1.5024 2.7877a.97737.97737 0 0 0 .0776-.1365.68654.68654 0 0 0 .2714-.1072h-.097c-.0775-.0877 0-.1852.1357-.1657a.2132.2132 0 0 1-.0488-.0811.21389.21389 0 0 1-.0093-.0943c.0969 0 .1066.0584.1841.0682v.117h.126c.0582 0 0 .0682.0582.1169-.1551 0-.1454.2242-.378.1657v-.0877l-.3199.2047Zm.8239.7895v.1657c-.0679.0682-.2132.0585-.3683 0-.0388-.1462.2035-.1462.3489-.1462l.0194-.0195Zm.2908-1.0917v.234h-.097v.0877c-.1163-.0682-.2907-.078-.2326-.3022.126.117.1842-.0292.3102-.0195h.0194Zm-2.1227-1.9494c0-.1072.3877 0 .3586.1365a1.5392 1.5392 0 0 1-.378-.1852l.0194.0487Zm-.0872.692c0-.1169.0484-.1462.0678-.2241.1551-.039.1163.2241-.0872.1754l.0194.0487Zm0-.8675v.117h-.1163v-.117h.1163Zm-.9693-1.4328a.17425.17425 0 0 1-.0873-.0682.17618.17618 0 0 1-.029-.1072c.0171.016.0303.0358.0387.0577a.1575.1575 0 0 1 .0098.069l.0678.0487Zm-2.2777-2.6902h-.0873v.0877c-.4071-.0487-.4361-.5458-.5234-.7115h.0873v-.0878c.3101.2437.6494.1073.7075.5556-.2617-.1852-.2617-.0487-.252.1072l.0679.0488Zm-.7173 1.1307c-.1745-.195.4168-.0975 0 0Zm0-2.1737c.0582.0683.1551.117.126.234l-.126-.234Zm.1939 4.0256a.20293.20293 0 0 1-.0697.0532.20181.20181 0 0 1-.0854.0189.20148.20148 0 0 1-.0854-.0189.20293.20293 0 0 1-.0697-.0532c-.0872-.1267.1357-.0195.2229-.0487l.0873.0487Zm.6494-4.084a.3109.3109 0 0 1 .1167-.1658.30836.30836 0 0 1 .1934-.0584c-.0484.1657-.2132.1754-.3974.1754l.0873.0488Zm.3683 2.9241c.1841.0585-.1357.0877-.126.1657-.3102-.1072.0969-.0877.0387-.1657h.0873Zm-.0873-2.4368v-.117h.1842v.1073l-.1842.0097Zm-10.6036 8.4411a.35663.35663 0 0 1-.1723-.0637.36023.36023 0 0 1-.1185-.141c.1163.0487.2908.0097.2908.2047Zm-.4652 13.4316c0-.117 0-.3704.0678-.3022.0678.0683.0291.3509-.0582.3022h-.0096Zm.9692 2.8754c0-.1072-.2035-.2534-.1357-.4289.0388.1365.2036.4971.1454.4289h-.0097Zm0-8.3631c.0582-.0682.4653-.2729.4749 0-.0096.0975-.4652.3022-.4749 0Zm.1842 3.4993c.1418.1849.244.3973.3004.6238a1.86548 1.86548 0 0 1-.3004-.6238Zm.6397-.3119s-.3586.0974-.2811.0974c-.2229-.3021.3198-.3021.2811-.0974Zm1.5799-2.4953c.1163-.156.3974-.078.3683.2631a.3855.3855 0 0 1-.2262-.072.38953.38953 0 0 1-.1421-.1911Zm.6494 7.5735c.0775.2632-.2617.5556-.2908.2437.1066-.0292.1357-.2047.2617-.2437h.0291Zm.8141-7.1544c0-.2632-.1454 0-.155.0585-.0097.0585.0775.3996 0 .3606a2.26643 2.26643 0 0 0 0-.3899c-.097.312-.2714.0975-.5428.0878 0-.1852 0-.4679.1066-.4971.1066-.0293 0 .2436.0872.2534.1842-.195.1357 0 .349 0 .029-.1852.252-.078.126.1267h.029Zm.349 11.3555h-.1842c-.1357-.3119.3393-.3509.2908-.117-.0872 0-.1454.0098-.1357.117h.0291Zm.5621-2.1152c0 .2437.1163.2535.1745.3802-.1842 0-.1357.3411-.3877.2339-.252-.1072-.1357-.7213.1842-.6141h.029Zm0 1.3841c-.0581.3899.1163.4971.1648.7603-.6009.0293-.4071-.731-.1551-.7603h-.0097Zm.3587.6433c.2714.4289-.3684.3607 0 0Zm0-6.3844c0 .7603-.4362.0683 0 0Zm.1744 3.4993c-.0775-.2632.2617-.5654.2908-.2437-.1938 0-.1357.3119-.2908.2437Zm.5137 10.8583-.1454-.1559h.1551c-.0484.0585-.0581.1072-.0581.1559h.0484Zm-.1163-.5945.1551-.2437c-.0775.078-.1454.1364-.2035.2437h.0484Zm.3683-.9748c-.281-.1072-.3489.1073-.5718.0975v-1.2574c.3295.117.4071-.2144.5718 0l-.0581.2242.1357.156c.0581.4581-.1745.4386-.126.8772l.0484-.0975Zm-.1163-2.9241a.27921.27921 0 0 1-.1454.0407.27912.27912 0 0 1-.1453-.0407c.0969-.2729.3295-.3217.4943-.4874l-.4943.4874h.2907Zm.0582-2.8267c0-.1462-.1357-.1462-.2714-.1365-.0485-.9747.7075-.3801.6785-.3509-.3974-.1364-.252.4192-.4556.4874h.0485Zm-.1163-1.7057a1.2266 1.2266 0 0 1 .252-.3704l-.252.3704Zm.6009-14.8645a.69583.69583 0 0 0-.0775-.3801c.1357-.0585.2423-.1755.3877-.234 0 .1755.1454.2145.1744.3802-.1841.0779-.252.2924-.4846.2339Zm.1939 13.8702c0-.0584 0-.1072.0969-.1169l-.0969.1169Zm.2617-7.6807a.4918.4918 0 0 1 .2326-.0975l-.2326.0975Zm-.1454-1.1795c.2811.1073.126-.4288.4749-.2339.0969.4094-.4168.5556-.4749.2632v-.0293Zm1.2988-4.006a.12572.12572 0 0 1 0-.0585c.1938 0 .1744.1072.3683.078 0 .0584-.2617.0877-.3489 0a.33395.33395 0 0 1 0 .1559c-.1357.156-.5041-.0877-.5525-.3996h.2908c-.0194.4581.155.1949.2423.2534v-.0292Zm.7269-1.1892c.126.1462-.1163 0-.3005 0 .097-.156.2521.1852.3005.0292v-.0292Zm-.0775-1.0429v-.117h.126v.1072l-.126.0098Zm0 3.3627v.1073h-.1163v-.117l.1163.0097Zm.1647 2.3296c.0302.2572-.0135.5176-.126.7505.0582.2145.4556 0 .4653.273h-.1454v.1949c-.1745 0-.2326.2047-.2132.4971-.6204-.117-.5816-.692-.6204-1.2866l.1551-.1365v-.2339a.48318.48318 0 0 1 .2337-.0773.48273.48273 0 0 1 .2413.048l.0096-.0292Zm.5331-2.0372c-.1163 0-.252 0-.3489-.1559a.11811.11811 0 0 1-.0409.0419.117.117 0 0 1-.056.0166c.1357-.2827-.2229-.4776 0-.5069 0 .0585.1357.3119.0872.4386l.3586.1657Zm0-.5555c-.1066 0-.1163 0-.126.1072a.31834.31834 0 0 0-.1454-.0293v-.1657c.1551-.0487.3296-.1169.3102.1657l-.0388-.0779Zm-.1163-.2925c0-.0682.126 0 .126-.1169.2036.0877-.0194.2826-.0872.1462l-.0388-.0293Zm-1.4442 3.7625a.82222.82222 0 0 1 .109.3231.82218.82218 0 0 1-.0314.3397l.1841-.0585v.3801h-.1454c.1261.0975.2327.2047.2133.3314l-.0097.1657-.1745-.3899v.195c-.2714 0-.3392-.3022-.4458-.5264.1454 0 .0775-.3119.2907-.2339l.097.1949-.0776-.6628a.85297.85297 0 0 1-.1084-.3281.85331.85331 0 0 1 .0309-.3444c-.1677-.2385-.2497-.5272-.2326-.8188l.2326.8188a.76232.76232 0 0 1 .4362.0877l-.4362-.0877.0678.6141Zm-.2907 4.8735c0-.3606.2326-.4581.407-.6043-.0099.1284.017.257.0776.3704-.3102-.1852-.1551.3509-.4459.2437l-.0387-.0098Zm.4458.6531c-.2714.1852-.2326-.5556-.0678-.5069.0097.2437.1357.2925.1066.5167l-.0388-.0098Zm-.2714-4.0451c-.126 0-.1357.1657-.2908.117 0-.1462 0-.3509.1067-.3704 0 .1754.1647.1267.1841.2534Zm-.2714 6.9108c.2327 0 .3005-.1852.4847-.234v.195l.1357.0682c0 .5654-.6785.6141-.6204-.0195v-.0097Zm.5234 1.1501c.126.4289.5622-.2631.5622.273-.0291.1559-.9014.0097-.5622-.2632v-.0098Zm.1939-1.3548.4943.1267c-.1648.1462-.3392-.0097-.504-.117l.0097-.0097Zm.4652 1.5108c.3296-.3704.2714.4776 0 0Zm.5137-.731-.3198-.6141.4943.0682-.1745.5459Zm0-5.9946c-.126.1852-.252.3899-.4749.3997l.2132.1754c0 .1462 0 .3509-.1066.3704v-.1852.4386c.1454 0 .3393 0 .3586.1365-.3974.3022-.0678.8968 0 1.2574-.3489-.1072-.2229.4776-.4943.4874v-.1852V81.8763a.98076.98076 0 0 1 0 .4094l-.4943.4386c.0529-.1521.1316-.294.2326-.4191h.2617v-.4289a.92155.92155 0 0 1 0-.6628.83255.83255 0 0 1-.1048-.4045c0-.1416.0361-.2809.1048-.4045h-.1454c0-.7408-.2811-1.1404.1551-1.5011l.1454-.0584c-.0679-.2005-.091-.4134-.0679-.6239l-.0581.1852a.56457.56457 0 0 1-.2408-.2764.56873.56873 0 0 1-.0209-.3669l.1454-.0585a1.46768 1.46768 0 0 1-.144-.7391c.017-.2548.1-.5007.2409-.7132a.71436.71436 0 0 1 .4071-.1274c.1454 0 .2874.0444.4071.1274l-.7948 1.2866v.3412l.4749-.3996c.097-.1463.1939-.2827.3393-.2827l-.3393.3216Zm.126-2.6804.7754.2826c-.2907.1852-.5234-.1267-.7851-.2729l.0097-.0097Zm.7367-2.5635c0-.0975.1163 0 .1841 0 .0679 0-.0969.0195-.1938.0097l.0097-.0097Zm-.5719-8.7725h.0582s0 .1072.126.117c-.0582.3411 0 .7895-.349.8577 0 .0877.0873 0 .1842 0-.0771.185-.2091.3416-.378.4484-.378-.1755-.1842-.4971-.0582-.7798-.7905 1.1497-1.7002 2.2116-2.7139 3.1678.0446.0851.0834.173.1163.2632h-.378c-.4749.4484-.9692.887-1.5217 1.3159-3.7607 2.9241-6.6782 4.162-7.7541 3.0801-.9692-.9747.5719-4.0646 3.1598-6.823a1.9419 1.9419 0 0 1-.4652-.3899c.1818.0955.3511.2133.504.3509a18.56254 18.56254 0 0 1 1.9385-1.813c3.7607-2.9241 8.103-4.279 8.3647-2.4368-.0114.9486-.3051 1.8721-.8433 2.6512l.0097-.0097Zm.6882-6.5696c0-.0585.1454-.0585.126-.1755.1357 0 .1938.0585.1744.1852l-.3004-.0097Zm.5428 1.6375c.1938 0 0 .2729.1744.3022-.1163.1754-.2229-.1365-.1841-.2924l.0097-.0098Zm.3004 14.2602c0 .1072-.1163 0-.1841 0-.0679 0 .0969 0 .1744.0097l.0097-.0097Zm0-13.7826c.223.0975.1454.1755-.0678.0585-.0291-.0975.0484-.1072.0484-.0487l.0194-.0098Zm0-.692s.1357-.0682.1745 0-.3489.1267-.2229.0097l.0484-.0097Zm0 18.7633c-.1454 0 0-.2534 0-.2924a.26069.26069 0 0 0 .1842.0682c0 .195-.252.1072-.2423.234l.0581-.0098Zm0-19.2312c.0582-.0975.1551-.1657.1939-.2827.0387-.1169.0969.1073.1841.1268a.31254.31254 0 0 1-.0731.126.30892.30892 0 0 1-.1222.0788.30852.30852 0 0 1-.2796-.0391l.0969-.0098Zm1.0759 3.3043v-.1462l-.2423-.6628c.1118.2082.1934.4314.2423.6628l.0582.156-.0582-.0098Zm.1357-1.4621c.252 0 0 .1267 0 .234 0 .1072-.0872-.1365-.0969-.2242l.0969-.0098Zm.5331 5.1758c-.1551.1852-.2908-.1657 0 0Zm-.4556-3.3433.5622 1.2964v-.0877c.3489-.2047.5137-.6044 1.1243-.5361.0582.1657.252.2241.2327.4678-.3684.2632-.2714.6726-.5331 1.082h-.097c.1537.1061.2772.2505.3587.4191.1163-.0975.2908 0 .4168 0h-.4168l-.3587-.4191h-.0872c-.2078-.0608-.3895-.1898-.5159-.3665a.9776.9776 0 0 1-.1819-.6083h.0872a6.09079 6.09079 0 0 1-.6882-1.2378l.0969-.0098Zm1.9385 3.1678c-.0969.2047-.533.0585-.6203.2632-.1647-.2242.0582-.5653.2036-.6823H64.2228c-.0678.1852.1842.1755.126.4289l.1066-.0098Zm-1.3375 4.4058v-.078h-.0969c-.0582 0 0-.0682-.0582-.117-.0582-.0487.2326 0 .252-.1657a.17448.17448 0 0 1 .0691.0529.17737.17737 0 0 1 .0352.0799.17732.17732 0 0 1-.0075.087.17615.17615 0 0 1-.0483.0726h-.1164c.0582.078.1067.1657.2133.1852.1066.0195-.1551.2535-.2811.2827l.0485-.3509-.0097-.0487Zm.1066 2.0956a.20341.20341 0 0 1-.0452-.0669.20564.20564 0 0 1 0-.1586.20445.20445 0 0 1 .0452-.0669c.1938 0 .0678.1949.2326.1852a.29089.29089 0 0 1-.1495.1173.28957.28957 0 0 1-.1897-.0003l.1066-.0098Zm1.7543-5.8483c-.1453-.0682.0582-.2534.1939-.2242-.126.078-.2714.0682-.3005.1462l.1066.078Zm.5428.6336-.0775.0779c-.2229 0-.1842-.1754-.1745-.3509a.31866.31866 0 0 1 .1299.0108c.042.0125.0811.0336.1148.0619a.32311.32311 0 0 1 .0807.1028.32464.32464 0 0 1 .0333.1267l-.1067-.0292Zm.475 1.4913h-.1163v-.156h.126l-.0097.156Zm.9692-.3704s-.0581-.0585-.126-.0585c-.0678 0 .0679-.0585.0679-.117 0-.0584.0581.0683.1163.0683.0581 0-.1357.0195-.1357.0682l.0775.039Zm.1745.117c-.1939-.0585 0-.1268 0-.2242 0-.0975-.0679.0877 0 .2242Zm-.0969-.4679c0-.0682.1647 0 .1744 0 .0097 0-.2423.1072-.1938-.0292l.0194.0292Zm-.5137-.9747.0775-.0683a.91051.91051 0 0 1-.4491-.3232.91937.91937 0 0 1-.1809-.5248h-.0873c0-.0682-.1744-.0779-.1841 0a1.41173 1.41173 0 0 1-.2908-.4191.55062.55062 0 0 1-.2506-.1266.55643.55643 0 0 1-.1565-.234c.1648-.117.2714-.0683.4847 0v.2144l-.0873.0585v.1072h.126v-.1072c.126 0 .0872-.156.252-.1072 0 .2144.252.2924.349.4776V64.926H65.9772l.63.848v-.0975c.4555 0 .2714.6141.6397.7213-.2908.3802-.6979-.2729-.7366-.5848h.0194Zm-.6688-3.3823c0 .0975.3004 0 .2423.1852-.1357-.0292-.2811-.0292-.2617-.1852h.0194Zm.6397 2.3978c.1548-.0417.2892-.1387.378-.2729.1357.1657.2714.4386 0 .5166h-.0872l.2326.2437.1066.3509v-.0878c.1806.1646.3789.3085.5912.4289-.0581.078-.1647.1072-.1938.2242h-.1066l-.0776.078c-.3101-.1462-.1938-.3412-.3392-.5946h.0872a.77344.77344 0 0 1-.1066-.3509.4364.4364 0 0 1-.1406-.0984.43823.43823 0 0 1-.092-.1453v.0878c-.1939.0584-.1454-.0975-.2326-.1268v-.0877l-.0194-.1657Zm.126-1.5011c0 .0683.2229 0 .1744.1852-.0484.1852-.2423-.0389-.1938-.1559l.0194-.0293Zm.6397 4.4253h.2035c-.0775.3216.1551.1949.2714.2242a.92117.92117 0 0 0 .0582.3314c-.1842.1462-.5622-.078-.5525-.5556h.0194Zm.2035-1.0332c0-.0683-.1647-.2924 0-.2924h.0873v-.0878c.1938-.2339.1357.3412.3004.1267.1454.1852-.2423.2632-.4071.2535h.0194Zm.4459-.4484c0 .1267-.2908 0-.2423-.117.0484-.1169.1357-.0682.252-.0487.1163.0195-.1357.1754-.0291.1754l.0194-.0097Zm.0872-2.3686c-.0484.1755-.1454-.0779-.3004 0 0-.1657.2907-.0585.252-.2826.2035.0389-.1648.2631.029.2826h.0194Zm.2229 2.2711c-.1938.2047-.2035-.1852 0 0Zm-.1163-1.5108c0-.1267.3296 0 .3683 0 .0388 0-.2423-.0585-.3683 0Zm.4653-.9065c.2811 0-.0582.3509 0 0Zm.252 1.2184c.1744.0683 0 .2534 0 .3509-.3005-.0975-.1454-.2047-.0291-.3509h.0291Zm.0872.9747c-.2035-.1559.3199-.1267 0 0Zm1.7738.1268c0-.0683.1066 0 .1841 0 .0776 0-.1066-.0585-.1841-.0683-.0776-.0097 0 0 0-.078a.24186.24186 0 0 1-.0525-.0956.24486.24486 0 0 1-.0057-.109c.1648 0 .3102 0 .3296.1852l.0872.0584c-.0291.0293-.2036.078-.3877.0683l.0291.039Zm.3198-5.1466c0-.0779.0969-.1364.1357-.2241h.0872v-.0683l-.6494.078a.32111.32111 0 0 1 .0945.1164c.0219.0457.0327.096.0315.1468h-.3392a.3333.3333 0 0 1 .0678-.234h-.1453l-.2714.0585c-.0969.0585-.3393.5459-.3877.234 0-.0585.0678-.1365.1454-.195-.349.078-.6494.1755-1.0759.2729-.4265.0975-2.0451.6921-2.4619.5166-.1454-.0584-.3102-.0584-.3296-.2144-.0194-.156.1939-.2047.349-.2827.1716-.0631.3509-.1024.5331-.1169.3105-.0481.6156-.1265.9111-.234.2035-.0877.504 0 .504-.2534a.23648.23648 0 0 0 0-.117c0-.1072-.1745 0-.2714-.1072-.097-.1072-.1745-.3509-.1842-.5946a5.93185 5.93185 0 0 1 .4071-1.5205c.0969-.2047.3489-.77.4749-.7895a.22128.22128 0 0 1 .1013.0205.22178.22178 0 0 1 .0811.0642.224.224 0 0 1 .0437.0941c.0071.0344.006.07-.0031.1038a.8155.8155 0 0 0 .3101.2924c.1533.0665.3178.1029.4847.1073.2645.0194.5302.0194.7948 0 .267-.0342.5373-.0342.8044 0 .2647.0399.5205.1256.756.2534.2386.0776.4571.2074.6397.3801.1474.143.2573.3205.3199.5166a.8525.8525 0 0 1 0 .6336c-.0969.2632-.3102.3119-.5428.4581a2.29805 2.29805 0 0 1-.4361.1072h1.4538-1.4538l-.2327.0488c0 .1364-.2035.1657-.3392.1852l.2326-.1657H71.2887h.1648v.0779h.0872c0 .1365.2326.1268.1745.3509h-.6107v-.1072l-.0969.1072Zm1.8513-.2047c.0969.1073.1551 0 .3586 0s-.4846.1365-.3877-.0389l.0291.0389Zm-.6397.4874c-.1648.1365-.2133.0487-.4847.0975 0-.1657.1454-.1657.1357-.3412h.0582a.21505.21505 0 0 1 0-.1559h.0775c.0776 0 .1842 0 .2424-.0585l-.3102.2437h.0581c.1551 0 .3005 0 .3005.1267h-.0969c.1066 0 .2229 0 .2811.1364a.2835.2835 0 0 1-.0679.117l-.1744-.2729-.0194.1072Zm-.3296 2.778c-.2617.0682-.3004-.1852-.252-.5556.2133 0 .5719-.3119.5428.2436-.3586-.1657-.504-.1657-.3198.273l.029.039Zm.3102.9747c.3102-.1852.3295.1657 0 0Zm.1842-2.8072c.2907 0 .3683.2144.5427.3509-.1647.1072-.4846-.1267-.5718-.3802l.0291.0293Zm.9692 3.4992c-.0581 0-.0582 0-.0582-.0682v-.117c.1551 0 .1357.117.3102.0683-.0678.1949-.2908-.0293-.3005.0877l.0485.0292Zm-.3489-.9747c.2423.1024.4603.2552.6397.4484l-.6397-.4484Zm.7463-4.7274c0 .0682 0 .1365-.0775.1072 0-.5263-.2908.3022-.3393-.2241.0873-.1268.252-.117.4168-.0975v.2144Zm.378 4.3473c.0872 0 .1163-.1073.1454-.2047a.64637.64637 0 0 0 0-.3314c.4459-.0195-.3489.8577-.1938.4873l.0484.0488Zm-.2035-2.1347a.39628.39628 0 0 1 .1958.0374c.061.029.1137.0732.1531.1283l-.3489-.1657Zm.4071 2.622c.2201-.0743.4583-.0743.6784 0-.1163.2535-.4458.0488-.6978 0h.0194Zm-.4071-4.24 1.1049.0682c-.3695.007-.739-.0158-1.1049-.0682Zm1.1243 4.8249c.0679-.0585.1066-.117.1842-.1073l-.1842.1073Zm-.1551-6.0628c.2036 0 .252-.1949.3683-.3119 0 .156.1067.1852.126.3314-.2035-.156-.3973.3022-.4943-.0195Zm.6494.3801a.17514.17514 0 0 1-.0739.0852.174.174 0 0 1-.1102.0221.16523.16523 0 0 1 .0763-.0912.16416.16416 0 0 1 .1175-.0161h-.0097Zm0 2.5441c-.2229-.1755.2326-.2145 0 0Zm.252 1.462c0-.2241.0776-.2826.252-.2826-.126.0779-.0581.3314-.2811.2826h.0291Zm.3296.9065a.38818.38818 0 0 1 .1482-.1271.38589.38589 0 0 1 .191-.0386l-.3392.1657Zm.5137-1.3743c0-.1072.0969-.1462.1648-.2047l-.1648.2047Zm.2714 1.7252c-.0776 0 0-.1072-.0582-.1754-.0581-.0683.0582 0 .0582.0585 0 .0584.0581 0 .0678-.0585.1357.039-.1454.0877-.0969.1754h.0291Zm0-.6335c.2617 0-.0776.3314 0 0Zm.0775-1.9495v-.0877c-.2326.0682-.4265-.1072-.6106-.1949v.0584a.8448.8448 0 0 1 .3489.2827c-.1454.0585-.2035.2632-.4265.2047 0-.1657.0485-.3996 0-.4386-.0484-.039-.0678.1267-.1453.1072a.30093.30093 0 0 1 0-.0975.20235.20235 0 0 1-.1551 0v-.0877h-.0873c-.1744-.1949.1939-.2437.0776-.3412a.3955.3955 0 0 1-.1548.0586.3951.3951 0 0 1-.1651-.0098h-.3004c0-.0682.0775-.117.1453-.1462a.1673.1673 0 0 1-.0146-.0683c0-.0235.005-.0467.0146-.0682.1261 0 .5816-.1365.5525.1365.0582 0 .1357.1267.1939.1169.0581-.0097 0-.0682 0-.1657l.0969-.0682v-.1072c.0935-.0088.1876-.0088.2811 0 0-.2729 0-.5556.1744-.5459 0 .5556.2424.3997.349.5654a.24298.24298 0 0 0 .1163-.078c.1357 0 .0581.1657.1745.1755v.0877h.0969a.23536.23536 0 0 1 0 .1754h-.1745c0 .117.0775.117.1745.117 0 .1462-.1163.1267-.0679.2924a1.0611 1.0611 0 0 1-.504.1365l.0097-.0098Zm.4846.8578-.0775.0779v.0585l.0775-.0585s-.0581-.0974-.0097-.0974l.0097.0195Zm0 .4971c0 .1559-.126.1072-.126.2242-.126-.0488 0-.2924.126-.2437v.0195Zm.1454.2047c-.0581.1169-.2035.1364-.3101.1949l.3101-.1949Zm-.1647.4288c0-.1852.3101-.0877.4943-.0974a.96507.96507 0 0 1-.4943.0682v.0292Zm.504-.4483c0 .1072-.2327.2632-.0582 0 .0775-.1365.0582-.0293.0582-.0195v.0195Zm0-3.2751c.2229.0683.252-.1852.4943-.0877.0678.3509-.2326.078-.1648.4289-.1744-.0683-.2326-.2632-.3586-.3607l.0291.0195Zm.3004.3607.2424-.0975a.43458.43458 0 0 1-.2714.078l.029.0195Zm.6979.1169.0969-.0584-.4361.1949c.0969-.1267.2423-.2827.4361-.1949v-.1073c.126 0 .3974.0878.4265 0h.1842v.0878h.0872c0 .1072.1648.0779.1163.2339h-.0872v.0877c0 .195-.3005 0-.3102.2145h-.0872l.1744.2046c-.0872 0-.0969-.1267-.126-.2046v.0779c-.126-.1462-.2326-.1169-.3586-.1852.1648-.2144-.126-.2339-.1454-.3704l.0291.0195Zm.9693.7311h-.1939a.44043.44043 0 0 1 .1551-.0195l.0388.0195Zm.2035 2.4758.0872.1462c0-.0585 0-.1072-.0775-.156l-.0679.078c-.3004-.1462-.155-.5166-.407-.5946 0-.1267.1163-.078.126-.1657h.0872c-.0679-.1754-.1939-.3217-.1745-.5263l-.0775.0877c-.1939-.0975-.378-.3899-.1648-.5264-.2035 0-.4168-.3021-.4071-.4288.0097-.1268.1939-.2145.2617-.3899.0115.09.0518.1738.1147.2388s.1451.1078.2343.1218h-.097c.0499.0754.089.1574.1163.2437v-.0877c.1808.1981.2989.4457.3393.7115-.1163-.1072-.0679 0-.2423 0v.0585h-.1067l.1745.5263h.0969c.1643.1987.2626.4441.2811.7018l-.0969-.0389Zm-.0872-3.4798h.6688a.23422.23422 0 0 1 .0775-.1462l-.126.1462c-.1357.1365-.4265.0195-.6591-.0195l.0388.0195Z" fill="#fff"/>
    <path d="M23.43 75.7456c-.3772.3792.2778.4391 0 0Z" fill="#fff"/>
    <script/>
    </svg>